<?xml version="1.0" encoding="UTF-8"?>
<!--Generator: Apple Native CoreSVG 175-->
<!DOCTYPE svg
PUBLIC "-//W3C//DTD SVG 1.1//EN"
       "http://www.w3.org/Graphics/SVG/1.1/DTD/svg11.dtd">
<svg version="1.1" xmlns="http://www.w3.org/2000/svg" xmlns:xlink="http://www.w3.org/1999/xlink" width="3300" height="2200">
 <!--glyph: "uni101147.medium", point size: 100.0, font version: "17.3d3e1", template writer version: "65.1"-->
 <g id="Notes">
  <rect height="2200" id="artboard" style="fill:white;opacity:1" width="3300" x="0" y="0"/>
  <line style="fill:none;stroke:black;opacity:1;stroke-width:0.5;" x1="263" x2="3036" y1="292" y2="292"/>
  <text style="stroke:none;fill:black;font-family:sans-serif;font-size:13;font-weight:bold;" transform="matrix(1 0 0 1 263 322)">Weight/Scale Variations</text>
  <text style="stroke:none;fill:black;font-family:sans-serif;font-size:13;text-anchor:middle;" transform="matrix(1 0 0 1 559.711 322)">Ultralight</text>
  <text style="stroke:none;fill:black;font-family:sans-serif;font-size:13;text-anchor:middle;" transform="matrix(1 0 0 1 856.422 322)">Thin</text>
  <text style="stroke:none;fill:black;font-family:sans-serif;font-size:13;text-anchor:middle;" transform="matrix(1 0 0 1 1153.13 322)">Light</text>
  <text style="stroke:none;fill:black;font-family:sans-serif;font-size:13;text-anchor:middle;" transform="matrix(1 0 0 1 1449.84 322)">Regular</text>
  <text style="stroke:none;fill:black;font-family:sans-serif;font-size:13;text-anchor:middle;" transform="matrix(1 0 0 1 1746.56 322)">Medium</text>
  <text style="stroke:none;fill:black;font-family:sans-serif;font-size:13;text-anchor:middle;" transform="matrix(1 0 0 1 2043.27 322)">Semibold</text>
  <text style="stroke:none;fill:black;font-family:sans-serif;font-size:13;text-anchor:middle;" transform="matrix(1 0 0 1 2339.98 322)">Bold</text>
  <text style="stroke:none;fill:black;font-family:sans-serif;font-size:13;text-anchor:middle;" transform="matrix(1 0 0 1 2636.69 322)">Heavy</text>
  <text style="stroke:none;fill:black;font-family:sans-serif;font-size:13;text-anchor:middle;" transform="matrix(1 0 0 1 2933.4 322)">Black</text>
  <line style="fill:none;stroke:black;opacity:1;stroke-width:0.5;" x1="263" x2="3036" y1="1903" y2="1903"/>
  <g transform="matrix(1 0 0 1 263 1933)">
   <path d="M9.24805 0.830078Q10.8691 0.830078 12.2949 0.214844Q13.7207-0.400391 14.8096-1.49414Q15.8984-2.58789 16.5186-4.01367Q17.1387-5.43945 17.1387-7.05078Q17.1387-8.66211 16.5186-10.0879Q15.8984-11.5137 14.8047-12.6074Q13.7109-13.7012 12.2852-14.3164Q10.8594-14.9316 9.23828-14.9316Q7.62695-14.9316 6.20117-14.3164Q4.77539-13.7012 3.69141-12.6074Q2.60742-11.5137 1.9873-10.0879Q1.36719-8.66211 1.36719-7.05078Q1.36719-5.43945 1.9873-4.01367Q2.60742-2.58789 3.69629-1.49414Q4.78516-0.400391 6.21094 0.214844Q7.63672 0.830078 9.24805 0.830078ZM9.24805-0.654297Q7.91992-0.654297 6.7627-1.14746Q5.60547-1.64062 4.73145-2.51953Q3.85742-3.39844 3.36426-4.56055Q2.87109-5.72266 2.87109-7.05078Q2.87109-8.37891 3.35938-9.54102Q3.84766-10.7031 4.72168-11.582Q5.5957-12.4609 6.75293-12.9541Q7.91016-13.4473 9.23828-13.4473Q10.5762-13.4473 11.7334-12.9541Q12.8906-12.4609 13.7695-11.582Q14.6484-10.7031 15.1465-9.54102Q15.6445-8.37891 15.6445-7.05078Q15.6445-5.72266 15.1514-4.56055Q14.6582-3.39844 13.7842-2.51953Q12.9102-1.64062 11.748-1.14746Q10.5859-0.654297 9.24805-0.654297ZM5.6543-7.05078Q5.6543-6.72852 5.85938-6.52832Q6.06445-6.32812 6.40625-6.32812L8.51562-6.32812L8.51562-4.20898Q8.51562-3.88672 8.71094-3.67676Q8.90625-3.4668 9.23828-3.4668Q9.56055-3.4668 9.77051-3.67676Q9.98047-3.88672 9.98047-4.20898L9.98047-6.32812L12.0898-6.32812Q12.4219-6.32812 12.627-6.52832Q12.832-6.72852 12.832-7.05078Q12.832-7.38281 12.627-7.58789Q12.4219-7.79297 12.0898-7.79297L9.98047-7.79297L9.98047-9.90234Q9.98047-10.2344 9.77051-10.4443Q9.56055-10.6543 9.23828-10.6543Q8.90625-10.6543 8.71094-10.4443Q8.51562-10.2344 8.51562-9.90234L8.51562-7.79297L6.40625-7.79297Q6.06445-7.79297 5.85938-7.58789Q5.6543-7.38281 5.6543-7.05078Z"/>
  </g>
  <g transform="matrix(1 0 0 1 281.867 1933)">
   <path d="M11.709 2.91016Q13.75 2.91016 15.5518 2.12891Q17.3535 1.34766 18.7305-0.0292969Q20.1074-1.40625 20.8887-3.20801Q21.6699-5.00977 21.6699-7.05078Q21.6699-9.0918 20.8887-10.8936Q20.1074-12.6953 18.7305-14.0723Q17.3535-15.4492 15.5469-16.2305Q13.7402-17.0117 11.6992-17.0117Q9.6582-17.0117 7.85645-16.2305Q6.05469-15.4492 4.68262-14.0723Q3.31055-12.6953 2.5293-10.8936Q1.74805-9.0918 1.74805-7.05078Q1.74805-5.00977 2.5293-3.20801Q3.31055-1.40625 4.6875-0.0292969Q6.06445 1.34766 7.86621 2.12891Q9.66797 2.91016 11.709 2.91016ZM11.709 1.25Q9.98047 1.25 8.47656 0.605469Q6.97266-0.0390625 5.83496-1.17676Q4.69727-2.31445 4.05762-3.81836Q3.41797-5.32227 3.41797-7.05078Q3.41797-8.7793 4.05762-10.2832Q4.69727-11.7871 5.83008-12.9297Q6.96289-14.0723 8.4668-14.7119Q9.9707-15.3516 11.6992-15.3516Q13.4277-15.3516 14.9316-14.7119Q16.4355-14.0723 17.5781-12.9297Q18.7207-11.7871 19.3652-10.2832Q20.0098-8.7793 20.0098-7.05078Q20.0098-5.32227 19.3701-3.81836Q18.7305-2.31445 17.5928-1.17676Q16.4551-0.0390625 14.9463 0.605469Q13.4375 1.25 11.709 1.25ZM7.17773-7.05078Q7.17773-6.69922 7.41211-6.47461Q7.64648-6.25 8.01758-6.25L10.8887-6.25L10.8887-3.36914Q10.8887-2.99805 11.1133-2.76855Q11.3379-2.53906 11.6895-2.53906Q12.0605-2.53906 12.29-2.76855Q12.5195-2.99805 12.5195-3.36914L12.5195-6.25L15.4004-6.25Q15.7715-6.25 16.001-6.47461Q16.2305-6.69922 16.2305-7.05078Q16.2305-7.42188 16.001-7.65137Q15.7715-7.88086 15.4004-7.88086L12.5195-7.88086L12.5195-10.752Q12.5195-11.1328 12.29-11.3623Q12.0605-11.5918 11.6895-11.5918Q11.3379-11.5918 11.1133-11.3574Q10.8887-11.123 10.8887-10.752L10.8887-7.88086L8.01758-7.88086Q7.63672-7.88086 7.40723-7.65137Q7.17773-7.42188 7.17773-7.05078Z"/>
  </g>
  <g transform="matrix(1 0 0 1 305.646 1933)">
   <path d="M14.9707 5.66406Q17.0605 5.66406 18.96 5.01465Q20.8594 4.36523 22.4512 3.19336Q24.043 2.02148 25.2197 0.429688Q26.3965-1.16211 27.0459-3.06641Q27.6953-4.9707 27.6953-7.05078Q27.6953-9.14062 27.0459-11.04Q26.3965-12.9395 25.2197-14.5312Q24.043-16.123 22.4512-17.2998Q20.8594-18.4766 18.9551-19.126Q17.0508-19.7754 14.9609-19.7754Q12.8711-19.7754 10.9717-19.126Q9.07227-18.4766 7.48535-17.2998Q5.89844-16.123 4.72168-14.5312Q3.54492-12.9395 2.90039-11.04Q2.25586-9.14062 2.25586-7.05078Q2.25586-4.9707 2.90527-3.06641Q3.55469-1.16211 4.72656 0.429688Q5.89844 2.02148 7.49023 3.19336Q9.08203 4.36523 10.9814 5.01465Q12.8809 5.66406 14.9707 5.66406ZM14.9707 3.84766Q13.1641 3.84766 11.5283 3.2959Q9.89258 2.74414 8.53516 1.74805Q7.17773 0.751953 6.17676-0.610352Q5.17578-1.97266 4.62891-3.6084Q4.08203-5.24414 4.08203-7.05078Q4.08203-8.86719 4.62891-10.5029Q5.17578-12.1387 6.17188-13.501Q7.16797-14.8633 8.52539-15.8594Q9.88281-16.8555 11.5186-17.4023Q13.1543-17.9492 14.9609-17.9492Q16.7773-17.9492 18.4131-17.4023Q20.0488-16.8555 21.4111-15.8594Q22.7734-14.8633 23.7695-13.501Q24.7656-12.1387 25.3174-10.5029Q25.8691-8.86719 25.8691-7.05078Q25.8789-5.24414 25.332-3.6084Q24.7852-1.97266 23.7842-0.610352Q22.7832 0.751953 21.4209 1.74805Q20.0586 2.74414 18.4229 3.2959Q16.7871 3.84766 14.9707 3.84766ZM9.19922-7.05078Q9.19922-6.66992 9.45801-6.4209Q9.7168-6.17188 10.1172-6.17188L14.0625-6.17188L14.0625-2.2168Q14.0625-1.81641 14.3115-1.55762Q14.5605-1.29883 14.9512-1.29883Q15.3516-1.29883 15.6104-1.55273Q15.8691-1.80664 15.8691-2.2168L15.8691-6.17188L19.8242-6.17188Q20.2246-6.17188 20.4785-6.4209Q20.7324-6.66992 20.7324-7.05078Q20.7324-7.46094 20.4785-7.71484Q20.2246-7.96875 19.8242-7.96875L15.8691-7.96875L15.8691-11.9141Q15.8691-12.3242 15.6104-12.583Q15.3516-12.8418 14.9512-12.8418Q14.5605-12.8418 14.3115-12.583Q14.0625-12.3242 14.0625-11.9141L14.0625-7.96875L10.1172-7.96875Q9.70703-7.96875 9.45312-7.71484Q9.19922-7.46094 9.19922-7.05078Z"/>
  </g>
  <text style="stroke:none;fill:black;font-family:sans-serif;font-size:13;font-weight:bold;" transform="matrix(1 0 0 1 263 1953)">Design Variations</text>
  <text style="stroke:none;fill:black;font-family:sans-serif;font-size:13;" transform="matrix(1 0 0 1 263 1971)">Symbols are supported in up to nine weights and three scales.</text>
  <text style="stroke:none;fill:black;font-family:sans-serif;font-size:13;" transform="matrix(1 0 0 1 263 1989)">For optimal layout with text and other symbols, vertically align</text>
  <text style="stroke:none;fill:black;font-family:sans-serif;font-size:13;" transform="matrix(1 0 0 1 263 2007)">symbols with the adjacent text.</text>
  <line style="fill:none;stroke:#00AEEF;stroke-width:0.5;opacity:1.0;" x1="776" x2="776" y1="1919" y2="1933"/>
  <g transform="matrix(1 0 0 1 776 1933)">
   <path d="M3.31055 0.15625Q3.70117 0.15625 3.91602-0.00976562Q4.13086-0.175781 4.26758-0.585938L5.52734-4.0332L11.2891-4.0332L12.5488-0.585938Q12.6855-0.175781 12.9004-0.00976562Q13.1152 0.15625 13.4961 0.15625Q13.8867 0.15625 14.1162-0.0585938Q14.3457-0.273438 14.3457-0.644531Q14.3457-0.869141 14.2383-1.17188L9.6582-13.3691Q9.48242-13.8184 9.17969-14.043Q8.87695-14.2676 8.4082-14.2676Q7.5-14.2676 7.17773-13.3789L2.59766-1.16211Q2.49023-0.859375 2.49023-0.634766Q2.49023-0.263672 2.70996-0.0537109Q2.92969 0.15625 3.31055 0.15625ZM6.00586-5.51758L8.37891-12.0898L8.42773-12.0898L10.8008-5.51758Z"/>
  </g>
  <line style="fill:none;stroke:#00AEEF;stroke-width:0.5;opacity:1.0;" x1="793.197" x2="793.197" y1="1919" y2="1933"/>
  <text style="stroke:none;fill:black;font-family:sans-serif;font-size:13;font-weight:bold;" transform="matrix(1 0 0 1 776 1953)">Margins</text>
  <text style="stroke:none;fill:black;font-family:sans-serif;font-size:13;" transform="matrix(1 0 0 1 776 1971)">Leading and trailing margins on the left and right side of each symbol</text>
  <text style="stroke:none;fill:black;font-family:sans-serif;font-size:13;" transform="matrix(1 0 0 1 776 1989)">can be adjusted by modifying the x-location of the margin guidelines.</text>
  <text style="stroke:none;fill:black;font-family:sans-serif;font-size:13;" transform="matrix(1 0 0 1 776 2007)">Modifications are automatically applied proportionally to all</text>
  <text style="stroke:none;fill:black;font-family:sans-serif;font-size:13;" transform="matrix(1 0 0 1 776 2025)">scales and weights.</text>
  <g transform="matrix(1 0 0 1 1289 1933)">
   <path d="M2.8418 1.86523L4.54102 3.57422Q5.18555 4.22852 5.90332 4.17969Q6.62109 4.13086 7.31445 3.35938L18.0078-8.42773L17.041-9.4043L6.42578 2.27539Q6.16211 2.57812 5.89355 2.61719Q5.625 2.65625 5.27344 2.30469L4.10156 1.14258Q3.75 0.791016 3.79395 0.522461Q3.83789 0.253906 4.14062-0.0195312L15.6152-10.8203L14.6387-11.7871L3.04688-0.898438Q2.30469-0.214844 2.25098 0.498047Q2.19727 1.21094 2.8418 1.86523ZM9.25781-16.3281Q8.94531-16.0254 8.90625-15.6348Q8.86719-15.2441 9.04297-14.9512Q9.21875-14.6777 9.55566-14.541Q9.89258-14.4043 10.3809-14.5215Q11.4746-14.7754 12.5977-14.7314Q13.7207-14.6875 14.7949-13.9844L14.209-12.5293Q13.9551-11.9043 14.0674-11.4404Q14.1797-10.9766 14.5801-10.5664L16.875-8.25195Q17.2363-7.88086 17.5781-7.82227Q17.9199-7.76367 18.3398-7.8418L19.4043-8.03711L20.0684-7.36328L20.0293-6.80664Q20-6.43555 20.1221-6.12305Q20.2441-5.81055 20.6055-5.44922L21.3672-4.70703Q21.7285-4.3457 22.1533-4.33105Q22.5781-4.31641 22.9297-4.66797L25.8398-7.58789Q26.1914-7.93945 26.1816-8.35449Q26.1719-8.76953 25.8105-9.13086L25.0391-9.89258Q24.6875-10.2539 24.3799-10.3857Q24.0723-10.5176 23.7109-10.4883L23.1348-10.4395L22.4902-11.0742L22.7344-12.1973Q22.832-12.6172 22.6953-12.9834Q22.5586-13.3496 22.1191-13.7891L19.9219-15.9766Q18.6719-17.2168 17.2607-17.8369Q15.8496-18.457 14.4189-18.4814Q12.9883-18.5059 11.665-17.959Q10.3418-17.4121 9.25781-16.3281ZM10.752-15.957Q11.6602-16.6211 12.7002-16.9043Q13.7402-17.1875 14.8047-17.085Q15.8691-16.9824 16.8701-16.5137Q17.8711-16.0449 18.7012-15.2051L21.1328-12.793Q21.3086-12.6172 21.3525-12.4512Q21.3965-12.2852 21.3379-12.0312L21.0156-10.5469L22.5195-9.0625L23.5059-9.12109Q23.6914-9.13086 23.7891-9.09668Q23.8867-9.0625 24.0332-8.91602L24.6094-8.33984L22.168-5.89844L21.5918-6.47461Q21.4453-6.62109 21.4062-6.71875Q21.3672-6.81641 21.377-7.01172L21.4453-7.98828L19.9512-9.47266L18.4277-9.21875Q18.1836-9.16992 18.042-9.2041Q17.9004-9.23828 17.7148-9.41406L15.7129-11.416Q15.5176-11.5918 15.4932-11.7529Q15.4688-11.9141 15.5859-12.1875L16.4648-14.2773Q15.293-15.3711 13.8281-15.791Q12.3633-16.2109 10.8398-15.7617Q10.7227-15.7324 10.6885-15.8057Q10.6543-15.8789 10.752-15.957Z"/>
  </g>
  <text style="stroke:none;fill:black;font-family:sans-serif;font-size:13;font-weight:bold;" transform="matrix(1 0 0 1 1289 1953)">Exporting</text>
  <text style="stroke:none;fill:black;font-family:sans-serif;font-size:13;" transform="matrix(1 0 0 1 1289 1971)">Symbols should be outlined when exporting to ensure the</text>
  <text style="stroke:none;fill:black;font-family:sans-serif;font-size:13;" transform="matrix(1 0 0 1 1289 1989)">design is preserved when submitting to Xcode.</text>
  <text id="template-version" style="stroke:none;fill:black;font-family:sans-serif;font-size:13;text-anchor:end;" transform="matrix(1 0 0 1 3036 1933)">Template v.2.0</text>
  <text style="stroke:none;fill:black;font-family:sans-serif;font-size:13;text-anchor:end;" transform="matrix(1 0 0 1 3036 1951)">Requires Xcode 12 or greater</text>
  <text id="descriptive-name" style="stroke:none;fill:black;font-family:sans-serif;font-size:13;text-anchor:end;" transform="matrix(1 0 0 1 3036 1969)">Generated from person.wave.2</text>
  <text style="stroke:none;fill:black;font-family:sans-serif;font-size:13;text-anchor:end;" transform="matrix(1 0 0 1 3036 1987)">Typeset at 100 points</text>
  <text style="stroke:none;fill:black;font-family:sans-serif;font-size:13;" transform="matrix(1 0 0 1 263 726)">Small</text>
  <text style="stroke:none;fill:black;font-family:sans-serif;font-size:13;" transform="matrix(1 0 0 1 263 1156)">Medium</text>
  <text style="stroke:none;fill:black;font-family:sans-serif;font-size:13;" transform="matrix(1 0 0 1 263 1586)">Large</text>
 </g>
 <g id="Guides">
  <g id="H-reference" style="fill:#27AAE1;stroke:none;" transform="matrix(1 0 0 1 339 696)">
   <path d="M0.993347 0L3.6377 0L29.3282-67.1326L30.0301-67.1326L30.0301-70.459L28.1227-70.459ZM11.6882-24.4797L46.9818-24.4797L46.2311-26.7288L12.4382-26.7288ZM55.1193 0L57.7637 0L30.6381-70.459L29.4327-70.459L29.4327-67.1326Z"/>
  </g>
  <line id="Baseline-S" style="fill:none;stroke:#27AAE1;opacity:1;stroke-width:0.5;" x1="263" x2="3036" y1="696" y2="696"/>
  <line id="Capline-S" style="fill:none;stroke:#27AAE1;opacity:1;stroke-width:0.5;" x1="263" x2="3036" y1="625.541" y2="625.541"/>
  <g id="H-reference" style="fill:#27AAE1;stroke:none;" transform="matrix(1 0 0 1 339 1126)">
   <path d="M0.993347 0L3.6377 0L29.3282-67.1326L30.0301-67.1326L30.0301-70.459L28.1227-70.459ZM11.6882-24.4797L46.9818-24.4797L46.2311-26.7288L12.4382-26.7288ZM55.1193 0L57.7637 0L30.6381-70.459L29.4327-70.459L29.4327-67.1326Z"/>
  </g>
  <line id="Baseline-M" style="fill:none;stroke:#27AAE1;opacity:1;stroke-width:0.5;" x1="263" x2="3036" y1="1126" y2="1126"/>
  <line id="Capline-M" style="fill:none;stroke:#27AAE1;opacity:1;stroke-width:0.5;" x1="263" x2="3036" y1="1055.54" y2="1055.54"/>
  <g id="H-reference" style="fill:#27AAE1;stroke:none;" transform="matrix(1 0 0 1 339 1556)">
   <path d="M0.993347 0L3.6377 0L29.3282-67.1326L30.0301-67.1326L30.0301-70.459L28.1227-70.459ZM11.6882-24.4797L46.9818-24.4797L46.2311-26.7288L12.4382-26.7288ZM55.1193 0L57.7637 0L30.6381-70.459L29.4327-70.459L29.4327-67.1326Z"/>
  </g>
  <line id="Baseline-L" style="fill:none;stroke:#27AAE1;opacity:1;stroke-width:0.5;" x1="263" x2="3036" y1="1556" y2="1556"/>
  <line id="Capline-L" style="fill:none;stroke:#27AAE1;opacity:1;stroke-width:0.5;" x1="263" x2="3036" y1="1485.54" y2="1485.54"/>
  <line id="left-margin" style="fill:none;stroke:#00AEEF;stroke-width:0.5;opacity:1.0;" x1="1394.75" x2="1394.75" y1="1030.79" y2="1150.12"/>
  <line id="right-margin" style="fill:none;stroke:#FF3B30;stroke-width:0.5;opacity:1.0;" x1="1504.94" x2="1504.94" y1="1030.79" y2="1150.12"/>
 </g>
 <g id="Symbols">
  <g id="Black-L" transform="matrix(1 0 0 1 2860.7 1556)">
   <path d="M34.4786 26.4107L110.924 26.4107Q129.32 26.4107 129.32 13.0556Q129.32 5.63794 125.103-1.55044Q120.886-8.73882 113.256-14.5577Q105.625-20.3766 95.2809-23.8854Q84.9372-27.3941 72.7012-27.3941Q60.4664-27.3941 50.133-23.8854Q39.7997-20.3766 32.1578-14.5577Q24.516-8.73882 20.3-1.55044Q16.084 5.63794 16.084 13.0556Q16.084 26.4107 34.4786 26.4107ZM35.4705 10.7055Q34.8364 10.7055 34.5746 10.3646Q34.3128 10.0238 34.3128 9.58536Q34.3128 6.89187 36.9127 3.27228Q39.5125-0.347313 44.4426-3.77568Q49.3727-7.20405 56.4995-9.4471Q63.6264-11.6901 72.7012-11.6901Q81.776-11.6901 88.9029-9.4471Q96.0297-7.20405 100.96-3.77568Q105.891-0.347313 108.491 3.27228Q111.091 6.89187 111.091 9.58536Q111.091 10.0238 110.869 10.3646Q110.646 10.7055 109.932 10.7055ZM72.7036-33.4103Q80.7231-33.4103 87.2601-37.5823Q93.7972-41.7544 97.6469-48.8153Q101.497-55.8762 101.497-64.4623Q101.497-72.888 97.5977-79.7977Q93.6988-86.7074 87.1722-90.8572Q80.6455-95.007 72.7036-95.007Q64.8032-95.007 58.237-90.8364Q51.6708-86.6658 47.7906-79.7457Q43.9105-72.8256 43.9117-64.4207Q43.9713-55.8346 47.8022-48.7945Q51.6332-41.7544 58.1586-37.5823Q64.684-33.4103 72.7036-33.4103ZM72.7036-49.1155Q69.2303-49.1155 66.2821-51.1046Q63.334-53.0938 61.5691-56.5977Q59.8042-60.1016 59.8042-64.4791Q59.803-68.6378 61.5873-71.9821Q63.3716-75.3264 66.3209-77.3141Q69.2703-79.3018 72.7036-79.3018Q76.2161-79.3018 79.1357-77.3245Q82.0552-75.3472 83.8297-71.9847Q85.6041-68.6223 85.6041-64.4623Q85.6041-60.1432 83.8497-56.6581Q82.0952-53.173 79.1756-51.1442Q76.2561-49.1155 72.7036-49.1155ZM122.097-32.7098Q125.446-30.6978 129.045-31.3579Q132.645-32.0181 134.661-34.9028Q139.039-41.0105 141.453-48.6079Q143.866-56.2053 143.866-64.4623Q143.866-72.7414 141.453-80.3576Q139.039-87.9737 134.661-94.0803Q132.645-96.9078 129.045-97.5679Q125.446-98.2281 122.097-96.1952Q118.548-94.0623 117.879-90.0407Q117.211-86.019 120.167-80.9513Q122.35-77.4437 123.502-73.23Q124.653-69.0163 124.653-64.4623Q124.653-59.9888 123.491-55.7453Q122.33-51.5018 120.167-47.9954Q117.232-42.9641 117.89-38.9242Q118.548-34.8843 122.097-32.7098ZM153.514-14.5096Q156.963-12.5727 160.64-13.3601Q164.317-14.1475 166.471-17.4994Q172.971-27.5109 176.478-39.5217Q179.985-51.5325 179.985-64.4623Q179.985-77.4141 176.478-89.4354Q172.971-101.457 166.471-111.446Q164.317-114.778 160.64-115.566Q156.963-116.353 153.514-114.437Q149.619-112.267 149.097-108.072Q148.575-103.878 151.159-99.6865Q155.812-92.1631 158.321-83.1433Q160.83-74.1235 160.83-64.4623Q160.83-54.8024 158.3-45.793Q155.77-36.7836 151.159-29.2602Q148.596-25.0674 149.107-20.9029Q149.619-16.7385 153.514-14.5096Z"/>
  </g>
  <g id="Heavy-L" transform="matrix(1 0 0 1 2564.41 1556)">
   <path d="M33.6572 25.8243L110.894 25.8243Q128.472 25.8243 128.472 13.2993Q128.472 6.17551 124.364-0.965411Q120.255-8.10634 112.745-14.0041Q105.235-19.9018 94.936-23.5032Q84.637-27.1045 72.2753-27.1045Q59.9194-27.1045 49.6354-23.5032Q39.3513-19.9018 31.8236-14.0041Q24.2959-8.10634 20.19-0.965411Q16.084 6.17551 16.084 13.2993Q16.084 25.8243 33.6572 25.8243ZM33.777 11.7192Q32.9481 11.7192 32.5969 11.3549Q32.2457 10.9905 32.2457 10.391Q32.2457 7.37589 34.9363 3.38955Q37.6269-0.596788 42.7619-4.34721Q47.8968-8.09763 55.3292-10.5513Q62.7616-13.005 72.2753-13.005Q81.7892-13.005 89.2215-10.5513Q96.6539-8.09763 101.792-4.34721Q106.929-0.596788 109.62 3.38955Q112.311 7.37589 112.311 10.391Q112.311 10.9905 111.997 11.3549Q111.683 11.7192 110.774 11.7192ZM72.2865-33.7924Q80.1693-33.7924 86.6159-37.9148Q93.0625-42.0372 96.8603-49.012Q100.658-55.9869 100.658-64.4495Q100.658-72.7803 96.8252-79.5921Q92.9921-86.4039 86.5607-90.4759Q80.1292-94.548 72.2865-94.548Q64.5043-94.548 58.0354-90.4457Q51.5666-86.3435 47.7407-79.5166Q43.9149-72.6897 43.9205-64.3891Q43.9708-55.9265 47.7614-48.9818Q51.5521-42.0372 57.9779-37.9148Q64.4037-33.7924 72.2865-33.7924ZM72.2865-47.8976Q68.5143-47.8976 65.3232-50.0574Q62.132-52.2172 60.2147-55.9848Q58.2973-59.7523 58.2973-64.4337Q58.2917-68.9388 60.2191-72.5511Q62.1465-76.1635 65.3432-78.3031Q68.5399-80.4428 72.2865-80.4428Q76.108-80.4428 79.2796-78.3182Q82.4512-76.1936 84.3663-72.5769Q86.2814-68.9602 86.2814-64.4495Q86.2814-59.8126 84.3791-56.0523Q82.4768-52.2919 79.3052-50.0947Q76.1336-47.8976 72.2865-47.8976ZM121.104-33.8792Q124.024-32.1043 127.207-32.6847Q130.389-33.2652 132.21-35.8686Q136.409-41.6642 138.739-49.0441Q141.07-56.424 141.07-64.4495Q141.07-72.5108 138.739-79.8978Q136.409-87.2849 132.21-93.075Q130.389-95.6394 127.207-96.2198Q124.024-96.8003 121.104-94.9952Q117.974-93.0851 117.402-89.5466Q116.829-86.008 119.415-81.7179Q121.766-78.0949 123.004-73.6827Q124.241-69.2704 124.241-64.4495Q124.241-59.709 122.989-55.2716Q121.736-50.8343 119.415-47.2169Q116.859-42.9356 117.417-39.3926Q117.974-35.8496 121.104-33.8792ZM150.533-16.098Q153.558-14.3519 156.795-15.0367Q160.032-15.7215 161.972-18.6819Q168.366-28.2859 171.845-40.0502Q175.324-51.8146 175.324-64.4495Q175.324-77.1201 171.845-88.8996Q168.366-100.679 161.972-110.247Q160.032-113.183 156.795-113.868Q153.558-114.553 150.533-112.837Q147.181-110.912 146.723-107.266Q146.264-103.619 148.553-99.9982Q153.35-92.5001 155.945-83.3724Q158.54-74.2447 158.54-64.4495Q158.54-54.6599 155.915-45.5473Q153.289-36.4347 148.553-28.9366Q146.295-25.3101 146.738-21.6886Q147.181-18.067 150.533-16.098Z"/>
  </g>
  <g id="Bold-L" transform="matrix(1 0 0 1 2268.26 1556)">
   <path d="M32.5161 25.0721L110.9 25.0721Q127.345 25.0721 127.345 13.5691Q127.345 6.77687 123.36-0.29892Q119.374-7.37471 112.01-13.3499Q104.647-19.3251 94.4164-23.0194Q84.1861-26.7137 71.7079-26.7137Q59.2432-26.7137 49.0318-23.0194Q38.8203-19.3251 31.431-13.3499Q24.0417-7.37471 20.0629-0.29892Q16.084 6.77687 16.084 13.5691Q16.084 25.0721 32.5161 25.0721ZM31.7837 13.0166Q30.6269 13.0166 30.1383 12.5991Q29.6497 12.1817 29.6497 11.3377Q29.6497 7.89323 32.4592 3.44979Q35.2687-0.993641 40.661-5.13244Q46.0532-9.27123 53.8621-11.9712Q61.671-14.6713 71.7079-14.6713Q81.745-14.6713 89.5539-11.9712Q97.3628-9.27123 102.762-5.13244Q108.161-0.993641 110.97 3.44979Q113.779 7.89323 113.779 11.3377Q113.779 12.1817 113.324 12.5991Q112.869 13.0166 111.632 13.0166ZM71.7343-34.2091Q79.4481-34.2091 85.7721-38.2625Q92.096-42.316 95.8212-49.1758Q99.5463-56.0357 99.5463-64.3521Q99.5463-72.5526 95.7977-79.2416Q92.0491-85.9305 85.7441-89.9102Q79.4392-93.8899 71.7343-93.8899Q64.1057-93.8899 57.7671-89.8722Q51.4285-85.8545 47.6756-79.1466Q43.9226-72.4388 43.9357-64.2762Q43.9783-55.9597 47.7077-49.1379Q51.4372-42.316 57.7289-38.2625Q64.0206-34.2091 71.7343-34.2091ZM71.7343-46.2648Q67.5635-46.2648 64.0577-48.6396Q60.5519-51.0145 58.4426-55.1198Q56.3333-59.2251 56.3333-64.3054Q56.3199-69.2406 58.4316-73.1983Q60.5433-77.1561 64.0622-79.4951Q67.5811-81.8342 71.7343-81.8342Q75.9549-81.8342 79.4527-79.5141Q82.9504-77.194 85.0496-73.2473Q87.1488-69.3007 87.1488-64.3521Q87.1488-59.3009 85.0584-55.1912Q82.968-51.0815 79.4702-48.6732Q75.9725-46.2648 71.7343-46.2648ZM120.069-35.1524Q122.466-33.6695 125.126-34.1501Q127.786-34.6308 129.354-36.866Q133.352-42.3072 135.601-49.433Q137.85-56.5589 137.85-64.3521Q137.85-72.1966 135.601-79.318Q133.352-86.4394 129.354-91.8675Q127.786-94.0866 125.126-94.5672Q122.466-95.0478 120.069-93.5271Q117.461-91.9009 117.004-88.9617Q116.547-86.0225 118.679-82.6557Q121.26-78.8421 122.609-74.1877Q123.957-69.5333 123.957-64.3521Q123.957-59.2514 122.59-54.5758Q121.222-49.9002 118.679-46.0998Q116.585-42.711 117.023-39.7827Q117.461-36.8544 120.069-35.1524ZM147.12-17.8267Q149.623-16.3262 152.314-16.8841Q155.006-17.4421 156.67-19.911Q162.948-29.0378 166.407-40.5358Q169.866-52.0337 169.866-64.3521Q169.866-76.7215 166.407-88.2387Q162.948-99.7558 156.67-108.831Q155.006-111.275 152.314-111.833Q149.623-112.391 147.12-110.929Q144.422-109.312 144.044-106.334Q143.667-103.356 145.586-100.427Q150.582-92.9226 153.293-83.6381Q156.003-74.3536 156.003-64.3521Q156.003-54.364 153.255-45.0985Q150.506-35.8329 145.586-28.3283Q143.705-25.3862 144.063-22.4296Q144.422-19.4729 147.12-17.8267Z"/>
  </g>
  <g id="Semibold-L" transform="matrix(1 0 0 1 1971.94 1556)">
   <path d="M31.7295 24.5535L110.904 24.5535Q126.568 24.5535 126.568 13.7552Q126.568 7.19144 122.668 0.160554Q118.767-6.87033 111.504-12.899Q104.241-18.9276 94.0582-22.6859Q83.8753-26.4442 71.3167-26.4442Q58.7771-26.4442 48.6157-22.6859Q38.4543-18.9276 31.1604-12.899Q23.8665-6.87033 19.9752 0.160554Q16.084 7.19144 16.084 13.7552Q16.084 24.5535 31.7295 24.5535ZM30.4095 13.911Q29.0267 13.911 28.4433 13.4569Q27.8599 13.0029 27.8599 11.9904Q27.8599 8.24988 30.7514 3.49132Q33.6429-1.26723 39.2126-5.67377Q44.7823-10.0803 52.8507-12.9501Q60.9192-15.82 71.3167-15.82Q81.7145-15.82 89.783-12.9501Q97.8515-10.0803 103.43-5.67377Q109.009-1.26723 111.901 3.49132Q114.792 8.24988 114.792 11.9904Q114.792 13.0029 114.24 13.4569Q113.687 13.911 112.224 13.911ZM71.3537-34.4963Q78.9509-34.4963 85.1903-38.5023Q91.4298-42.5083 95.1048-49.2888Q98.7798-56.0693 98.7798-64.285Q98.7798-72.3957 95.0893-78.9999Q91.3989-85.6041 85.1812-89.5202Q78.9635-93.4363 71.3537-93.4363Q63.8309-93.4363 57.5821-89.4768Q51.3334-85.5174 47.6307-78.8916Q43.9279-72.2658 43.9462-64.1983Q43.9834-55.9826 47.6707-49.2454Q51.358-42.5083 57.5573-38.5023Q63.7565-34.4963 71.3537-34.4963ZM71.3537-45.1392Q66.908-45.1392 63.1853-47.6622Q59.4626-50.1853 57.2209-54.5235Q54.9793-58.8617 54.9793-64.2169Q54.9606-69.4487 57.1993-73.6445Q59.438-77.8404 63.179-80.3169Q66.92-82.7934 71.3537-82.7934Q75.8494-82.7934 79.572-80.3385Q83.2946-77.8836 85.5206-73.7096Q87.7467-69.5355 87.7467-64.285Q87.7467-58.9481 85.5266-54.5976Q83.3066-50.2471 79.584-47.6931Q75.8614-45.1392 71.3537-45.1392ZM119.355-36.0302Q121.391-34.7486 123.691-35.1604Q125.992-35.5722 127.385-37.5536Q131.245-42.7505 133.438-49.7012Q135.63-56.6519 135.63-64.285Q135.63-71.98 133.438-78.9183Q131.245-85.8565 127.385-91.035Q125.992-93.0162 123.691-93.428Q121.391-93.8397 119.355-92.5149Q117.107-91.0845 116.729-88.5585Q116.352-86.0325 118.172-83.3023Q120.911-79.3573 122.337-74.5359Q123.762-69.7145 123.762-64.285Q123.762-58.9359 122.315-54.0961Q120.868-49.2563 118.172-45.3296Q116.395-42.5562 116.751-40.0516Q117.107-37.547 119.355-36.0302ZM144.767-19.0184Q146.91-17.6872 149.225-18.1578Q151.541-18.6283 153.014-20.7583Q159.213-29.5561 162.658-40.8705Q166.104-52.1848 166.104-64.285Q166.104-76.4467 162.658-87.783Q159.213-99.1193 153.014-107.855Q151.541-109.96 149.225-110.431Q146.91-110.901 144.767-109.614Q142.52-108.208 142.198-105.691Q141.876-103.175 143.541-100.723Q148.675-93.2138 151.464-83.8212Q154.254-74.4287 154.254-64.285Q154.254-54.16 151.421-44.789Q148.588-35.4181 143.541-27.9089Q141.919-25.4387 142.22-22.9404Q142.52-20.4421 144.767-19.0184Z"/>
  </g>
  <g id="Medium-L" transform="matrix(1 0 0 1 1675.52 1556)">
   <path d="M31.133 24.1603L110.908 24.1603Q125.979 24.1603 125.979 13.8962Q125.979 7.50578 122.143 0.508947Q118.307-6.48789 111.12-12.557Q103.933-18.6261 93.7865-22.433Q83.6397-26.2399 71.0201-26.2399Q58.4236-26.2399 48.3002-22.433Q38.1767-18.6261 30.9552-12.557Q23.7336-6.48789 19.9088 0.508947Q16.084 7.50578 16.084 13.8962Q16.084 24.1603 31.133 24.1603ZM29.3675 14.5891Q27.8134 14.5891 27.1582 14.1073Q26.5029 13.6256 26.5029 12.4853Q26.5029 8.5203 29.4566 3.52281Q32.4102-1.47467 38.1144-6.08423Q43.8186-10.6938 52.0839-13.6924Q60.3492-16.691 71.0201-16.691Q81.6914-16.691 89.9568-13.6924Q98.2221-10.6938 103.938-6.08423Q109.653-1.47467 112.607 3.52281Q115.56 8.5203 115.56 12.4853Q115.56 13.6256 114.934 14.1073Q114.307 14.5891 112.673 14.5891ZM71.065-34.7142Q78.5739-34.7142 84.7492-38.6841Q90.9246-42.6541 94.5616-49.3744Q98.1985-56.0948 98.1985-64.2341Q98.1985-72.2767 94.5522-78.8167Q90.9059-85.3567 84.7544-89.2245Q78.6028-93.0923 71.065-93.0923Q63.6225-93.0923 57.4419-89.177Q51.2612-85.2618 47.5966-78.6982Q43.9319-72.1346 43.9542-64.1392Q43.9873-55.9999 47.6427-49.327Q51.298-42.6541 57.4271-38.6841Q63.5562-34.7142 71.065-34.7142ZM71.065-44.2857Q66.411-44.2857 62.5239-46.9211Q58.6367-49.5566 56.2946-54.0714Q53.9526-58.5861 53.9526-64.1497Q53.93-69.6065 56.2649-73.9829Q58.5999-78.3592 62.5094-80.94Q66.4188-83.5208 71.065-83.5208Q75.7694-83.5208 79.6625-80.9636Q83.5555-78.4065 85.8778-74.06Q88.2001-69.7135 88.2001-64.2341Q88.2001-58.6806 85.8817-54.1475Q83.5633-49.6144 79.6702-46.95Q75.7772-44.2857 71.065-44.2857ZM118.813-36.6958Q120.577-35.5668 122.604-35.9264Q124.631-36.286 125.892-38.075Q129.647-43.0866 131.797-49.9045Q133.948-56.7224 133.948-64.2341Q133.948-71.8158 131.797-78.6151Q129.647-85.4145 125.892-90.4038Q124.631-92.2045 122.604-92.5641Q120.577-92.9237 118.813-91.7475Q116.839-90.4655 116.521-88.2528Q116.204-86.04 117.787-83.7925Q120.647-79.7479 122.13-74.7999Q123.614-69.8519 123.614-64.2341Q123.614-58.6967 122.106-53.7324Q120.599-48.768 117.787-44.7457Q116.252-42.4388 116.545-40.2555Q116.839-38.0723 118.813-36.6958ZM142.983-19.922Q144.853-18.7192 146.883-19.1235Q148.913-19.5277 150.242-21.4008Q156.38-29.9491 159.816-41.1242Q163.251-52.2994 163.251-64.2341Q163.251-76.2384 159.816-87.4376Q156.38-98.6367 150.242-107.115Q148.913-108.963 146.883-109.367Q144.853-109.771 142.983-108.616Q141.078-107.371 140.798-105.204Q140.518-103.037 141.991-100.947Q147.228-93.4347 150.078-83.9601Q152.927-74.4856 152.927-64.2341Q152.927-54.0053 150.03-44.5544Q147.133-35.1035 141.991-27.591Q140.566-25.4785 140.822-23.3278Q141.078-21.177 142.983-19.922Z"/>
  </g>
  <g id="Regular-L" transform="matrix(1 0 0 1 1379.2 1556)">
   <path d="M30.355 23.6474L110.912 23.6474Q125.21 23.6474 125.21 14.0802Q125.21 7.9158 121.458 0.963373Q117.706-5.98905 110.619-12.111Q103.532-18.233 93.4322-22.1032Q83.3323-25.9733 70.6332-25.9733Q57.9626-25.9733 47.8886-22.1032Q37.8147-18.233 30.6875-12.111Q23.5603-5.98905 19.8221 0.963373Q16.084 7.9158 16.084 14.0802Q16.084 23.6474 30.355 23.6474ZM28.0084 15.4737Q26.2308 15.4737 25.4818 14.9557Q24.7329 14.4377 24.7329 13.1308Q24.7329 8.87303 27.7676 3.56389Q30.8023-1.74525 36.6819-6.61961Q42.5615-11.494 51.0836-14.6605Q59.6056-17.8271 70.6332-17.8271Q81.6613-17.8271 90.1834-14.6605Q98.7054-11.494 104.599-6.61961Q110.492-1.74525 113.527 3.56389Q116.561 8.87303 116.561 13.1308Q116.561 14.4377 115.839 14.9557Q115.116 15.4737 113.259 15.4737ZM70.6885-34.9983Q78.0821-34.9983 84.1739-38.9212Q90.2657-42.8442 93.853-49.4861Q97.4404-56.1281 97.4404-64.1678Q97.4404-72.1215 93.8517-78.5777Q90.2629-85.0339 84.1977-88.8388Q78.1324-92.6437 70.6885-92.6437Q63.3507-92.6437 57.2589-88.786Q51.1671-84.9284 47.5522-78.4459Q43.9372-71.9635 43.9646-64.0622Q43.9925-56.0225 47.6061-49.4334Q51.2197-42.8442 57.2573-38.9212Q63.295-34.9983 70.6885-34.9983ZM70.6885-43.1724Q65.7627-43.1724 61.661-45.9545Q57.5593-48.7366 55.0864-53.4816Q52.6135-58.2267 52.6135-64.0622Q52.5856-69.8123 55.0462-74.4242Q57.5068-79.036 61.6359-81.7528Q65.765-84.4695 70.6885-84.4695Q75.6651-84.4695 79.7805-81.779Q83.8959-79.0886 86.3437-74.5171Q88.7915-69.9457 88.7915-64.1678Q88.7915-58.3318 86.3448-53.5604Q83.8982-48.7891 79.7828-45.9808Q75.6673-43.1724 70.6885-43.1724ZM118.107-37.5639Q119.514-36.6341 121.185-36.9256Q122.856-37.2171 123.944-38.7551Q127.563-43.525 129.658-50.1697Q131.752-56.8143 131.752-64.1678Q131.752-71.6016 129.658-78.2198Q127.563-84.838 123.944-89.5805Q122.856-91.1458 121.185-91.4374Q119.514-91.7289 118.107-90.7465Q116.489-89.6581 116.25-87.854Q116.011-86.0499 117.285-84.432Q120.302-80.2574 121.861-75.1443Q123.42-70.0312 123.42-64.1678Q123.42-58.3848 121.834-53.258Q120.249-48.1312 117.285-43.984Q116.064-42.2856 116.277-40.5215Q116.489-38.7574 118.107-37.5639ZM140.657-21.1007Q142.169-20.0653 143.828-20.3831Q145.486-20.7008 146.627-22.2388Q152.686-30.4617 156.108-41.4553Q159.53-52.4488 159.53-64.1678Q159.53-75.9667 156.108-86.9869Q152.686-98.0072 146.627-106.149Q145.486-107.662 143.828-107.98Q142.169-108.298 140.657-107.315Q139.197-106.28 138.972-104.569Q138.747-102.858 139.968-101.24Q145.341-93.7227 148.269-84.1413Q151.197-74.5598 151.197-64.1678Q151.197-53.8036 148.216-44.2484Q145.236-34.6932 139.968-27.1762Q138.8-25.5304 138.998-23.833Q139.197-22.1356 140.657-21.1007Z"/>
  </g>
  <g id="Light-L" transform="matrix(1 0 0 1 1083.13 1556)">
   <path d="M28.771 22.9602L111.198 22.9602Q123.932 22.9602 123.932 14.061Q123.932 7.9158 120.199 1.04931Q116.466-5.81718 109.455-11.8628Q102.444-17.9085 92.478-21.7023Q82.5117-25.4962 69.9842-25.4962Q57.5047-25.4962 47.5547-21.7023Q37.6047-17.9085 30.5538-11.8628Q23.5029-5.81718 19.7934 1.04931Q16.084 7.9158 16.084 14.061Q16.084 22.9602 28.771 22.9602ZM27.3023 16.638Q24.742 16.638 23.7259 15.929Q22.7099 15.2201 22.7099 13.4553Q22.7099 8.70116 25.8687 3.05806Q29.0275-2.58505 35.1075-7.65981Q41.1875-12.7346 49.9576-15.9774Q58.7277-19.2203 69.9842-19.2203Q81.2416-19.2203 90.0117-15.9774Q98.7817-12.7346 104.885-7.65981Q110.989-2.58505 114.147 3.05806Q117.306 8.70116 117.306 13.4553Q117.306 15.2201 116.306 15.929Q115.307 16.638 112.667 16.638ZM70.0777-34.922Q77.3568-34.922 83.296-38.7495Q89.2351-42.5771 92.7174-49.0853Q96.1998-55.5935 96.1998-63.5762Q96.1998-71.3581 92.6874-77.7189Q89.175-84.0797 83.2528-87.8464Q77.3307-91.6131 70.0777-91.6131Q62.8928-91.6131 56.9537-87.8127Q51.0145-84.0123 47.4855-77.6348Q43.9564-71.2574 44.0027-63.5088Q44.0498-55.5261 47.5488-49.0516Q51.0478-42.5771 56.9232-38.7495Q62.7986-34.922 70.0777-34.922ZM70.0777-41.245Q64.694-41.245 60.2869-44.1988Q55.8797-47.1525 53.2542-52.203Q50.6286-57.2535 50.6286-63.5088Q50.5815-69.5641 53.214-74.5005Q55.8464-79.4369 60.2999-82.3634Q64.7534-85.29 70.0777-85.29Q75.4361-85.29 79.8664-82.3801Q84.2967-79.4702 86.9353-74.5744Q89.5739-69.6786 89.5739-63.5762Q89.5739-57.3201 86.965-52.253Q84.3561-47.1858 79.9258-44.2154Q75.4955-41.245 70.0777-41.245ZM118.642-37.3157Q119.743-36.5767 121.013-36.7919Q122.283-37.0071 123.124-38.1635Q126.743-42.8952 128.923-49.4636Q131.103-56.0319 131.103-63.5762Q131.103-71.2008 128.923-77.7521Q126.743-84.3034 123.124-88.9889Q122.283-90.1916 121.013-90.4068Q119.743-90.622 118.642-89.8496Q117.405-89.0091 117.223-87.6249Q117.042-86.2407 118.03-85.0047Q121.351-80.3911 123.016-75.1348Q124.68-69.8786 124.68-63.5762Q124.68-57.3542 122.998-52.0747Q121.317-46.7953 118.03-42.2281Q117.076-40.9116 117.241-39.5672Q117.405-38.2228 118.642-37.3157ZM140.103-20.7572Q141.273-19.9508 142.549-20.1827Q143.826-20.4145 144.7-21.5709Q150.777-29.6412 154.285-40.7014Q157.793-51.7617 157.793-63.5762Q157.793-75.4703 154.285-86.548Q150.777-97.6256 144.7-105.615Q143.826-106.784 142.549-107.016Q141.273-107.248 140.103-106.475Q138.968-105.669 138.81-104.359Q138.651-103.048 139.605-101.812Q145.246-94.0472 148.307-84.2081Q151.369-74.369 151.369-63.5762Q151.369-52.8304 148.274-43.008Q145.178-33.1855 139.605-25.4203Q138.685-24.1372 138.827-22.85Q138.968-21.5629 140.103-20.7572Z"/>
  </g>
  <g id="Thin-L" transform="matrix(1 0 0 1 787.26 1556)">
   <path d="M26.676 22.0514L111.577 22.0514Q122.24 22.0514 122.24 14.0356Q122.24 7.9158 118.533 1.16297Q114.825-5.58986 107.915-11.5346Q101.005-17.4793 91.2159-21.1722Q81.4264-24.8652 69.1259-24.8652Q56.8991-24.8652 47.113-21.1722Q37.3269-17.4793 30.3769-11.5346Q23.427-5.58986 19.7555 1.16297Q16.084 7.9158 16.084 14.0356Q16.084 22.0514 26.676 22.0514ZM26.3685 18.1778Q22.7729 18.1778 21.4036 17.2164Q20.0343 16.2549 20.0343 13.8845Q20.0343 8.47385 23.3572 2.38905Q26.6802-3.69575 33.0252-9.03557Q39.3703-14.3754 48.4684-17.7192Q57.5665-21.063 69.1259-21.063Q80.6865-21.063 89.7846-17.7192Q98.8827-14.3754 105.264-9.03557Q111.645-3.69575 114.968 2.38905Q118.29 8.47385 118.29 13.8845Q118.29 16.2549 116.925 17.2164Q115.559 18.1778 111.884 18.1778ZM69.2698-34.821Q76.3975-34.821 82.1348-38.5224Q87.8721-42.2238 91.2155-48.5552Q94.559-54.8866 94.559-62.7937Q94.559-70.3483 91.1475-76.5829Q87.736-82.8176 82.0033-86.5338Q76.2705-90.25 69.2698-90.25Q62.2872-90.25 56.5499-86.5253Q50.8126-82.8006 47.3972-76.5621Q43.9818-70.3235 44.0532-62.7768Q44.1258-54.8696 47.4731-48.5467Q50.8205-42.2238 56.4813-38.5224Q62.1421-34.821 69.2698-34.821ZM69.2698-38.6958Q63.2805-38.6958 58.4694-41.8766Q53.6584-45.0575 50.8309-50.5119Q48.0035-55.9664 48.0035-62.7768Q47.9309-69.2359 50.7907-74.6014Q53.6505-79.967 58.5329-83.1711Q63.4154-86.3753 69.2698-86.3753Q75.1333-86.3753 79.9801-83.1751Q84.8268-79.9748 87.7177-74.6501Q90.6087-69.3253 90.6087-62.7937Q90.6087-55.9821 87.7852-50.5237Q84.9617-45.0654 80.1149-41.8806Q75.2682-38.6958 69.2698-38.6958ZM119.349-36.9875Q120.046-36.5008 120.786-36.615Q121.526-36.7293 122.039-37.381Q125.657-42.0623 127.951-48.5297Q130.245-54.9971 130.245-62.7937Q130.245-70.6707 127.951-77.1336Q125.657-83.5965 122.039-88.2064Q121.526-88.9295 120.786-89.0437Q120.046-89.158 119.349-88.6634Q118.617-88.1508 118.511-87.3219Q118.405-86.493 119.014-85.7621Q122.74-80.5679 124.543-75.1223Q126.346-69.6767 126.346-62.7937Q126.346-55.9911 124.538-50.5098Q122.731-45.0285 119.014-39.9057Q118.414-39.0944 118.515-38.3051Q118.617-37.5159 119.349-36.9875ZM139.371-20.303Q140.086-19.7994 140.858-19.9176Q141.63-20.0358 142.15-20.6875Q148.253-28.5559 151.875-39.7044Q155.496-50.8528 155.496-62.7937Q155.496-74.8138 151.875-85.9674Q148.253-97.121 142.15-104.908Q141.63-105.623 140.858-105.741Q140.086-105.859 139.371-105.365Q138.665-104.861 138.595-104.081Q138.525-103.301 139.126-102.57Q145.119-94.4764 148.358-84.2965Q151.596-74.1167 151.596-62.7937Q151.596-51.5433 148.349-41.3674Q145.102-31.1914 139.126-23.098Q138.534-22.2945 138.599-21.55Q138.665-20.8054 139.371-20.303Z"/>
  </g>
  <g id="Ultralight-L" transform="matrix(1 0 0 1 490.982 1556)">
   <path d="M25.6029 21.5859L111.771 21.5859Q121.374 21.5859 121.374 14.0225Q121.374 7.9158 117.679 1.22118Q113.984-5.47344 107.126-11.3664Q100.268-17.2594 90.5694-20.9007Q80.8706-24.5419 68.6862-24.5419Q56.5889-24.5419 46.8867-20.9007Q37.1846-17.2594 30.2863-11.3664Q23.3881-5.47344 19.736 1.22118Q16.084 7.9158 16.084 14.0225Q16.084 21.5859 25.6029 21.5859ZM25.8901 18.9666Q21.7644 18.9666 20.2141 17.8757Q18.6638 16.7849 18.6638 14.1043Q18.6638 8.35742 22.0708 2.04639Q25.4779-4.26465 31.9587-9.74023Q38.4395-15.2158 47.7056-18.6113Q56.9718-22.0068 68.6862-22.0068Q80.4021-22.0068 89.6682-18.6113Q98.9344-15.2158 105.458-9.74023Q111.982-4.26465 115.388 2.04639Q118.794 8.35742 118.794 14.1043Q118.794 16.7849 117.241 17.8757Q115.688 18.9666 111.484 18.9666ZM68.856-34.7693Q75.9062-34.7693 81.54-38.4061Q87.1739-42.0429 90.4462-48.2837Q93.7185-54.5245 93.7185-62.3929Q93.7185-69.8311 90.3588-76.0011Q86.999-82.1711 81.3632-85.8615Q75.7275-89.5519 68.856-89.5519Q61.977-89.5519 56.3431-85.866Q50.7093-82.18 47.3521-76.0126Q43.9949-69.8452 44.079-62.4019Q44.1646-54.5334 47.4344-48.2881Q50.7041-42.0429 56.255-38.4061Q61.8058-34.7693 68.856-34.7693ZM68.856-37.3901Q62.5565-37.3901 57.5385-40.6873Q52.5206-43.9844 49.5897-49.6458Q46.6589-55.3071 46.6589-62.4019Q46.5733-69.0677 49.5495-74.6531Q52.5257-80.2385 57.6279-83.5848Q62.73-86.9311 68.856-86.9311Q74.9782-86.9311 80.0383-83.5822Q85.0983-80.2333 88.1185-74.6889Q91.1387-69.1444 91.1387-62.3929Q91.1387-55.2968 88.2053-49.638Q85.2719-43.9793 80.2118-40.6847Q75.1517-37.3901 68.856-37.3901ZM119.711-36.8193Q120.201-36.4619 120.669-36.5245Q121.138-36.587 121.483-36.9802Q125.102-41.6357 127.453-48.0514Q129.805-54.4671 129.805-62.3929Q129.805-70.3992 127.453-76.8168Q125.102-83.2344 121.483-87.8056Q121.138-88.283 120.669-88.3456Q120.201-88.4082 119.711-88.0559Q119.237-87.7111 119.17-87.1667Q119.103-86.6223 119.518-86.15Q123.451-80.6585 125.325-75.1159Q127.199-69.5733 127.199-62.3929Q127.199-55.293 125.327-49.7083Q123.455-44.1236 119.518-38.7163Q119.099-38.1636 119.168-37.6587Q119.237-37.1538 119.711-36.8193ZM138.996-20.0704Q139.479-19.7219 139.992-19.7818Q140.505-19.8418 140.845-20.235Q146.96-28.0001 150.64-39.1937Q154.32-50.3873 154.32-62.3929Q154.32-74.4775 150.64-85.67Q146.96-96.8625 140.845-104.546Q140.505-105.028 139.992-105.088Q139.479-105.148 138.996-104.796Q138.51-104.447 138.485-103.939Q138.46-103.43 138.88-102.958Q145.055-94.6962 148.384-84.3418Q151.713-73.9875 151.713-62.3929Q151.713-50.884 148.388-40.527Q145.063-30.1701 138.88-21.9085Q138.456-21.3507 138.483-20.8841Q138.51-20.4175 138.996-20.0704Z"/>
  </g>
  <g id="Black-M" transform="matrix(1 0 0 1 2876.8 1126)">
   <path d="M27.2034 12.9365L86.0021 12.9365Q100.744 12.9365 100.744 1.96698Q100.744-4.02979 97.3874-9.62806Q94.0306-15.2263 88.025-19.6564Q82.0193-24.0865 73.9852-26.7149Q65.9512-29.3434 56.6027-29.3434Q47.254-29.3434 39.2227-26.7149Q31.1913-24.0865 25.1831-19.6564Q19.1749-15.2263 15.8179-9.62806Q12.4609-4.02979 12.4609 1.96698Q12.4609 12.9365 27.2034 12.9365ZM28.8402-0.355256Q28.4104-0.355256 28.2482-0.624983Q28.086-0.894709 28.086-1.15797Q28.086-3.03557 30.039-5.56987Q31.9921-8.10418 35.6627-10.5106Q39.3333-12.9171 44.6258-14.4842Q49.9183-16.0513 56.6027-16.0513Q63.2871-16.0513 68.5797-14.4842Q73.8722-12.9171 77.5426-10.5106Q81.2131-8.10418 83.1661-5.56987Q85.1192-3.03557 85.1192-1.15797Q85.1192-0.894709 84.9882-0.624983Q84.8573-0.355256 84.3653-0.355256ZM56.6022-33.4814Q62.9173-33.4814 68.0388-36.7434Q73.1604-40.0054 76.1733-45.5316Q79.1862-51.0579 79.1862-57.8083Q79.1862-64.3943 76.1193-69.8187Q73.0523-75.2432 67.9334-78.5198Q62.8146-81.7965 56.6022-81.7965Q50.4007-81.7965 45.2506-78.5143Q40.1004-75.2322 37.0593-69.805Q34.0181-64.3778 34.0178-57.7973Q34.0746-51.0469 37.0617-45.5261Q40.0488-40.0054 45.1679-36.7434Q50.287-33.4814 56.6022-33.4814ZM56.6022-46.7732Q54.1062-46.7732 51.9895-48.1908Q49.8729-49.6084 48.6159-52.1378Q47.359-54.6673 47.359-57.8544Q47.3593-60.8201 48.6419-63.2246Q49.9245-65.6291 52.0408-67.0669Q54.1572-68.5047 56.6022-68.5047Q59.1097-68.5047 61.1977-67.0697Q63.2856-65.6346 64.5653-63.2041Q65.845-60.7737 65.845-57.8083Q65.845-54.6783 64.5908-52.1746Q63.3366-49.671 61.2487-48.2221Q59.1608-46.7732 56.6022-46.7732ZM95.5194-32.2388Q98.4415-30.5021 101.534-31.0716Q104.626-31.6412 106.322-34.0662Q109.868-39.0611 111.821-45.1238Q113.775-51.1864 113.775-57.8083Q113.775-64.4354 111.821-70.5238Q109.868-76.6123 106.322-81.6075Q104.626-83.9751 101.534-84.5446Q98.4415-85.1142 95.5194-83.372Q92.4612-81.5617 91.8686-78.0876Q91.2759-74.6135 93.8447-70.0708Q95.4342-67.393 96.2661-64.2797Q97.0979-61.1664 97.0979-57.8083Q97.0979-54.5125 96.2633-51.3707Q95.4287-48.229 93.8447-45.5509Q91.2814-41.0601 91.8713-37.5601Q92.4612-34.0601 95.5194-32.2388ZM121.421-17.7653Q124.411-16.1317 127.586-16.8183Q130.761-17.5048 132.577-20.3865Q137.706-28.4724 140.459-37.9985Q143.212-47.5246 143.212-57.8083Q143.212-68.0972 140.459-77.626Q137.706-87.1549 132.577-95.2356Q130.761-98.1115 127.586-98.798Q124.411-99.4845 121.421-97.8565Q117.98-95.9946 117.53-92.3288Q117.08-88.663 119.3-84.9767Q122.817-79.0927 124.705-72.1625Q126.593-65.2322 126.593-57.8083Q126.593-50.3841 124.699-43.4566Q122.806-36.5291 119.3-30.6451Q117.085-26.9591 117.532-23.3217Q117.98-19.6843 121.421-17.7653Z"/>
  </g>
  <g id="Heavy-M" transform="matrix(1 0 0 1 2580.44 1126)">
   <path d="M26.5465 12.4268L85.9461 12.4268Q100.034 12.4268 100.034 2.20695Q100.034-3.50427 96.7807-9.06409Q93.5275-14.6239 87.6332-19.1381Q81.7388-23.6522 73.7361-26.3783Q65.7334-29.1043 56.2463-29.1043Q46.7615-29.1043 38.7669-26.3783Q30.7724-23.6522 24.8687-19.1381Q18.9651-14.6239 15.713-9.06409Q12.4609-3.50427 12.4609 2.20695Q12.4609 12.4268 26.5465 12.4268ZM27.2499 0.52836Q26.7018 0.52836 26.4769 0.253264Q26.2519-0.0218315 26.2519-0.400336Q26.2519-2.54655 28.2822-5.40857Q30.3125-8.27059 34.1649-10.9734Q38.0173-13.6762 43.5856-15.4422Q49.1539-17.2081 56.2463-17.2081Q63.3387-17.2081 68.907-15.4422Q74.4753-13.6762 78.3288-10.9734Q82.1824-8.27059 84.2127-5.40857Q86.243-2.54655 86.243-0.400336Q86.243-0.0218315 86.048 0.253264Q85.8531 0.52836 85.2427 0.52836ZM56.2508-33.8619Q62.4428-33.8619 67.49-37.0842Q72.5372-40.3064 75.5091-45.7609Q78.481-51.2154 78.481-57.8503Q78.481-64.3594 75.4714-69.6969Q72.4618-75.0345 67.4228-78.2387Q62.3838-81.4428 56.2508-81.4428Q50.1507-81.4428 45.0816-78.2222Q40.0126-75.0016 37.0166-69.6559Q34.0207-64.3102 34.0229-57.8175Q34.0688-51.1825 37.0271-45.7445Q39.9854-40.3064 45.0221-37.0842Q50.0589-33.8619 56.2508-33.8619ZM56.2508-45.7603Q53.5048-45.7603 51.1788-47.329Q48.8529-48.8976 47.4609-51.6566Q46.069-54.4156 46.069-57.8611Q46.0667-61.1371 47.4734-63.7738Q48.8801-66.4104 51.2083-67.9774Q53.5366-69.5444 56.2508-69.5444Q59.0251-69.5444 61.3304-67.9856Q63.6357-66.4268 65.0353-63.7777Q66.4349-61.1286 66.4349-57.8503Q66.4349-54.4484 65.0512-51.703Q63.6675-48.9577 61.3622-47.359Q59.0569-45.7603 56.2508-45.7603ZM94.4996-33.4048Q97.0303-31.8823 99.7522-32.381Q102.474-32.8797 104.002-35.0649Q107.373-39.7583 109.237-45.6153Q111.101-51.4723 111.101-57.8503Q111.101-64.247 109.237-70.1176Q107.373-75.9882 104.002-80.6793Q102.474-82.8231 99.7522-83.3219Q97.0303-83.8206 94.4996-82.2817Q91.8159-80.6662 91.3118-77.6257Q90.8076-74.5852 93.0416-70.7674Q94.7664-68.0173 95.6729-64.7231Q96.5794-61.4289 96.5794-57.8503Q96.5794-54.334 95.6647-51.0168Q94.75-47.6997 93.0416-44.9519Q90.8241-41.159 91.32-38.106Q91.8159-35.053 94.4996-33.4048ZM118.558-19.3497Q121.165-17.8816 123.945-18.4758Q126.725-19.0699 128.357-21.6041Q133.381-29.3057 136.099-38.5847Q138.816-47.8637 138.816-57.8503Q138.816-67.8555 136.099-77.1428Q133.381-86.4301 128.357-94.1129Q126.725-96.6329 123.945-97.2271Q121.165-97.8213 118.558-96.3696Q115.618-94.727 115.224-91.5595Q114.83-88.3921 116.786-85.2286Q120.419-79.3922 122.379-72.3803Q124.338-65.3684 124.338-57.8503Q124.338-50.3345 122.362-43.3308Q120.386-36.3271 116.786-30.4907Q114.846-27.3249 115.232-24.1804Q115.618-21.0359 118.558-19.3497Z"/>
  </g>
  <g id="Bold-M" transform="matrix(1 0 0 1 2284.13 1126)">
   <path d="M25.8117 11.8565L85.8835 11.8565Q99.2393 11.8565 99.2393 2.47539Q99.2393-2.91641 96.102-8.4332Q92.9647-13.95 87.1949-18.5582Q81.425-23.1665 73.4575-26.0017Q65.4899-28.8368 55.8476-28.8368Q46.2105-28.8368 38.2572-26.0017Q30.3038-23.1665 24.5171-18.5582Q18.7304-13.95 15.5956-8.4332Q12.4609-2.91641 12.4609 2.47539Q12.4609 11.8565 25.8117 11.8565ZM25.4709 1.51681Q24.7905 1.51681 24.4953 1.23571Q24.2002 0.954608 24.2002 0.447188Q24.2002-1.99952 26.3169-5.22813Q28.4337-8.45673 32.4894-11.491Q36.5452-14.5254 42.422-16.5138Q48.2988-18.5022 55.8476-18.5022Q63.3964-18.5022 69.2732-16.5138Q75.15-14.5254 79.2083-11.491Q83.2667-8.45673 85.3834-5.22813Q87.5001-1.99952 87.5001 0.447188Q87.5001 0.954608 87.2335 1.23571Q86.9669 1.51681 86.2243 1.51681ZM55.8578-34.2876Q61.912-34.2876 66.8761-37.4654Q71.8402-40.6433 74.7662-46.0174Q77.6922-51.3915 77.6922-57.8973Q77.6922-64.3203 74.7468-69.5607Q71.8014-74.801 66.8517-77.9241Q61.9019-81.0472 55.8578-81.0472Q49.871-81.0472 44.8927-77.8955Q39.9144-74.7438 36.969-69.4891Q34.0235-64.2345 34.0286-57.8401Q34.0623-51.3342 36.9884-45.9887Q39.9144-40.6433 44.859-37.4654Q49.8036-34.2876 55.8578-34.2876ZM55.8578-44.6274Q52.8322-44.6274 50.272-46.365Q47.7118-48.1025 46.1689-51.1183Q44.626-54.1341 44.626-57.8686Q44.6208-61.4919 46.1663-64.3882Q47.7118-67.2845 50.2771-68.996Q52.8423-70.7075 55.8578-70.7075Q58.9305-70.7075 61.479-69.0103Q64.0274-67.3131 65.5611-64.4194Q67.0948-61.5257 67.0948-57.8973Q67.0948-54.1913 65.5662-51.1755Q64.0376-48.1597 61.4891-46.3935Q58.9407-44.6274 55.8578-44.6274ZM93.3587-34.7091Q95.4518-33.4262 97.7594-33.8457Q100.067-34.2651 101.407-36.1821Q104.582-40.5382 106.346-46.1652Q108.109-51.7922 108.109-57.8973Q108.109-64.0362 106.346-69.6631Q104.582-75.2901 101.407-79.6411Q100.067-81.5345 97.7594-81.954Q95.4518-82.3735 93.3587-81.062Q91.094-79.6646 90.6889-77.109Q90.2838-74.5535 92.1432-71.5466Q94.0193-68.7157 95.0094-65.2191Q95.9995-61.7226 95.9995-57.8973Q95.9995-54.1343 94.9951-50.621Q93.9907-47.1076 92.1432-44.2818Q90.3124-41.2696 90.7032-38.7167Q91.094-36.1637 93.3587-34.7091ZM115.355-21.1221Q117.533-19.8391 119.872-20.3299Q122.211-20.8208 123.637-22.9661Q128.543-30.2378 131.221-39.2405Q133.898-48.2431 133.898-57.8973Q133.898-67.5852 131.221-76.6022Q128.543-85.6192 123.637-92.8571Q122.211-94.9789 119.872-95.4698Q117.533-95.9606 115.355-94.7062Q112.976-93.309 112.645-90.699Q112.313-88.0891 113.973-85.5104Q117.737-79.7272 119.777-72.6239Q121.817-65.5206 121.817-57.8973Q121.817-50.2791 119.748-43.1901Q117.679-36.1012 113.973-30.318Q112.342-27.7341 112.659-25.141Q112.976-22.5479 115.355-21.1221Z"/>
  </g>
  <g id="Semibold-M" transform="matrix(1 0 0 1 1987.69 1126)">
   <path d="M25.3051 11.4634L85.8403 11.4634Q98.6916 11.4634 98.6916 2.66045Q98.6916-2.51114 95.6342-7.99827Q92.5768-13.4854 86.8927-18.1585Q81.2087-22.8316 73.2653-25.742Q65.322-28.6524 55.5727-28.6524Q45.8306-28.6524 37.9057-25.742Q29.9808-22.8316 24.2747-18.1585Q18.5686-13.4854 15.5147-7.99827Q12.4609-2.51114 12.4609 2.66045Q12.4609 11.4634 25.3051 11.4634ZM24.2445 2.19825Q23.4728 2.19825 23.1293 1.913Q22.7858 1.62776 22.7858 1.03147Q22.7858-1.6224 24.9621-5.10373Q27.1384-8.58506 31.3344-11.8479Q35.5304-15.1108 41.6198-17.2526Q47.7093-19.3944 55.5727-19.3944Q63.4362-19.3944 69.5256-17.2526Q75.6151-15.1108 79.8146-11.8479Q84.0142-8.58506 86.1905-5.10373Q88.3667-1.6224 88.3667 1.03147Q88.3667 1.62776 88.0508 1.913Q87.7349 2.19825 86.901 2.19825ZM55.5869-34.5811Q61.5461-34.5811 66.4529-37.7283Q71.3596-40.8754 74.254-46.1942Q77.1483-51.5129 77.1483-57.9297Q77.1483-64.2934 74.2472-69.4667Q71.346-74.6401 66.4579-77.7073Q61.5697-80.7745 55.5869-80.7745Q49.6782-80.7745 44.7624-77.6702Q39.8467-74.566 36.9361-69.3742Q34.0255-64.1823 34.0326-57.8556Q34.0579-51.4388 36.9617-46.1571Q39.8655-40.8754 44.7465-37.7283Q49.6276-34.5811 55.5869-34.5811ZM55.5869-43.8463Q52.3684-43.8463 49.6468-45.7004Q46.9252-47.5544 45.2782-50.7472Q43.6311-53.94 43.6311-57.8738Q43.624-61.7364 45.2652-64.8117Q46.9064-67.887 49.635-69.6981Q52.3637-71.5092 55.5869-71.5092Q58.8653-71.5092 61.5814-69.7166Q64.2974-67.924 65.9236-64.8618Q67.5498-61.7995 67.5498-57.9297Q67.5498-54.014 65.9212-50.8118Q64.2927-47.6095 61.5766-45.7279Q58.8606-43.8463 55.5869-43.8463ZM92.5722-35.6084Q94.3635-34.4906 96.3855-34.8554Q98.4075-35.2203 99.6183-36.9523Q102.658-41.0758 104.353-46.5443Q106.047-52.0127 106.047-57.9297Q106.047-63.8908 104.353-69.3498Q102.658-74.8088 99.6183-78.9253Q98.4075-80.6462 96.3855-81.011Q94.3635-81.3758 92.5722-80.2211Q90.5963-78.974 90.2595-76.7528Q89.9226-74.5316 91.5239-72.0838Q93.5043-69.1971 94.552-65.5611Q95.5996-61.9251 95.5996-57.9297Q95.5996-53.9966 94.5334-50.348Q93.4672-46.6994 91.5239-43.8198Q89.9597-41.3459 90.278-39.1377Q90.5963-36.9294 92.5722-35.6084ZM113.146-22.344Q115.03-21.1885 117.064-21.6081Q119.098-22.0278 120.383-23.9051Q125.208-30.8805 127.858-39.6926Q130.508-48.5046 130.508-57.9297Q130.508-67.3988 127.858-76.2295Q125.208-85.0602 120.383-91.9913Q119.098-93.8387 117.064-94.2583Q115.03-94.6779 113.146-93.5595Q111.154-92.3314 110.867-90.1058Q110.579-87.8801 112.034-85.7046Q115.887-79.9582 117.983-72.7919Q120.078-65.6256 120.078-57.9297Q120.078-50.2409 117.946-43.0932Q115.813-35.9454 112.034-30.1989Q110.616-28.0162 110.885-25.8032Q111.154-23.5902 113.146-22.344Z"/>
  </g>
  <g id="Medium-M" transform="matrix(1 0 0 1 1691.19 1126)">
   <path d="M24.921 11.1653L85.8076 11.1653Q98.2762 11.1653 98.2762 2.80077Q98.2762-2.20384 95.2794-7.66848Q92.2826-13.1331 86.6637-17.8554Q81.0447-22.5777 73.1197-25.5452Q65.1947-28.5126 55.3642-28.5126Q45.5426-28.5126 37.6392-25.5452Q29.7358-22.5777 24.0908-17.8554Q18.4459-13.1331 15.4534-7.66848Q12.4609-2.20384 12.4609 2.80077Q12.4609 11.1653 24.921 11.1653ZM23.3146 2.71494Q22.4737 2.71494 22.0935 2.42655Q21.7133 2.13817 21.7133 1.47449Q21.7133-1.33645 23.9348-5.00941Q26.1563-8.68237 30.4586-12.1185Q34.7609-15.5546 41.0116-17.8127Q47.2623-20.0708 55.3642-20.0708Q63.4663-20.0708 69.717-17.8127Q75.9677-15.5546 80.2744-12.1185Q84.581-8.68237 86.8024-5.00941Q89.0239-1.33645 89.0239 1.47449Q89.0239 2.13817 88.6705 2.42655Q88.3171 2.71494 87.414 2.71494ZM55.3814-34.8036Q61.2687-34.8036 66.1319-37.9276Q70.9952-41.0515 73.8656-46.3283Q76.736-51.605 76.736-57.9543Q76.736-64.273 73.8684-69.3955Q71.0008-74.518 66.1593-77.5429Q61.3178-80.5677 55.3814-80.5677Q49.5321-80.5677 44.6637-77.4994Q39.7953-74.4312 36.9112-69.287Q34.027-64.1428 34.0356-57.8674Q34.0545-51.5181 36.9414-46.2848Q39.8284-41.0515 44.6613-37.9276Q49.4942-34.8036 55.3814-34.8036ZM55.3814-43.2541Q52.0168-43.2541 49.1728-45.1964Q46.3287-47.1388 44.6028-50.4658Q42.8768-53.7929 42.8768-57.8777Q42.8682-61.9218 44.5819-65.1329Q46.2957-68.3439 49.1482-70.2306Q52.0008-72.1172 55.3814-72.1172Q58.8159-72.1172 61.659-70.2522Q64.5022-68.3873 66.1985-65.1972Q67.8947-62.0071 67.8947-57.9543Q67.8947-53.8796 66.1904-50.536Q64.4862-47.1924 61.643-45.2232Q58.7998-43.2541 55.3814-43.2541ZM91.9759-36.2902Q93.5384-35.2977 95.3438-35.6211Q97.1492-35.9445 98.2618-37.5363Q101.199-41.4835 102.841-46.8317Q104.484-52.1799 104.484-57.9543Q104.484-63.7806 102.841-69.1122Q101.199-74.4439 98.2618-78.3825Q97.1492-79.9726 95.3438-80.296Q93.5384-80.6194 91.9759-79.5835Q90.219-78.4504 89.9339-76.4828Q89.6488-74.5151 91.0543-72.4911Q93.1138-69.5621 94.2051-65.8204Q95.2964-62.0786 95.2964-57.9543Q95.2964-53.8923 94.1834-50.1411Q93.0703-46.3899 91.0543-43.4695Q89.6923-41.4037 89.9556-39.4569Q90.219-37.51 91.9759-36.2902ZM111.472-23.2705Q113.132-22.2117 114.935-22.5774Q116.739-22.943 117.915-24.617Q122.679-31.3677 125.308-40.0353Q127.937-48.703 127.937-57.9543Q127.937-67.2575 125.308-75.9469Q122.679-84.6363 117.915-91.3349Q116.739-92.9741 114.935-93.3397Q113.132-93.7053 111.472-92.69Q109.773-91.5902 109.518-89.656Q109.263-87.7218 110.564-85.8519Q114.485-80.1333 116.623-72.9193Q118.76-65.7052 118.76-57.9543Q118.76-50.212 116.579-43.0196Q114.398-35.8273 110.564-30.1086Q109.307-28.2301 109.54-26.3053Q109.773-24.3805 111.472-23.2705Z"/>
  </g>
  <g id="Regular-M" transform="matrix(1 0 0 1 1394.75 1126)">
   <path d="M24.42 10.7765L85.7649 10.7765Q97.7345 10.7765 97.7345 2.9838Q97.7345-1.80303 94.8167-7.23833Q91.8989-12.6736 86.3648-17.4601Q80.8307-22.2465 72.9297-25.2884Q65.0286-28.3303 55.0924-28.3303Q45.167-28.3303 37.2916-25.2884Q29.4163-22.2465 23.8511-17.4601Q18.2858-12.6736 15.3734-7.23833Q12.4609-1.80303 12.4609 2.9838Q12.4609 10.7765 24.42 10.7765ZM22.1016 3.38888Q21.1705 3.38888 20.7425 3.0964Q20.3144 2.80393 20.3144 2.05235Q20.3144-0.963474 22.5948-4.88638Q24.8753-8.80929 29.3162-12.4715Q33.7572-16.1336 40.2182-18.5434Q46.6793-20.9531 55.0924-20.9531Q63.5056-20.9531 69.9667-18.5434Q76.4277-16.1336 80.874-12.4715Q85.3203-8.80929 87.6006-4.88638Q89.881-0.963474 89.881 2.05235Q89.881 2.80393 89.4788 3.0964Q89.0766 3.38888 88.0833 3.38888ZM55.1135-35.0938Q60.9068-35.0938 65.7134-38.1875Q70.5199-41.2811 73.359-46.5031Q76.1981-51.7251 76.1981-57.9863Q76.1981-64.2464 73.3743-69.3026Q70.5505-74.3589 65.7699-77.3284Q60.9892-80.2979 55.1135-80.2979Q49.3414-80.2979 44.5349-77.2766Q39.7283-74.2554 36.8787-69.1733Q34.029-64.0912 34.0395-57.8828Q34.0501-51.6216 36.915-46.4514Q39.78-41.2811 44.5501-38.1875Q49.3201-35.0938 55.1135-35.0938ZM55.1135-42.4816Q51.5582-42.4816 48.5545-44.5391Q45.5508-46.5966 43.7218-50.0988Q41.8929-53.6009 41.8929-57.8828Q41.8823-62.1637 43.6907-65.5518Q45.4991-68.9398 48.5133-70.925Q51.5274-72.9102 55.1135-72.9102Q58.7514-72.9102 61.7603-70.9508Q64.7692-68.9915 66.5569-65.6347Q68.3446-62.2778 68.3446-57.9863Q68.3446-53.7043 66.5416-50.1763Q64.7385-46.6483 61.7296-44.565Q58.7206-42.4816 55.1135-42.4816ZM91.198-37.1795Q92.4621-36.3504 93.9851-36.6197Q95.508-36.8891 96.4925-38.298Q99.2962-42.0152 100.87-47.2066Q102.444-52.398 102.444-57.9863Q102.444-63.6369 100.87-68.8024Q99.2962-73.9679 96.4925-77.6746Q95.508-79.094 93.9851-79.3634Q92.4621-79.6327 91.198-78.7519Q89.7268-77.7675 89.5092-76.1305Q89.2916-74.4935 90.4417-73.0224Q92.6044-70.0383 93.7527-66.1585Q94.901-62.2788 94.901-57.9863Q94.901-53.7561 93.7268-49.8712Q92.5526-45.9862 90.4417-43.0126Q89.3435-41.4792 89.5351-39.8732Q89.7268-38.2673 91.198-37.1795ZM109.288-24.479Q110.656-23.5464 112.158-23.8415Q113.66-24.1367 114.697-25.5457Q119.38-32.0033 121.982-40.4825Q124.584-48.9616 124.584-57.9863Q124.584-67.0731 121.982-75.5783Q119.38-84.0835 114.697-90.4786Q113.66-91.8464 112.158-92.1415Q110.656-92.4367 109.288-91.5559Q107.972-90.6233 107.76-89.0692Q107.547-87.5151 108.646-86.044Q112.656-80.3617 114.849-73.0854Q117.041-65.8091 117.041-57.9863Q117.041-50.1742 114.797-42.9237Q112.553-35.6732 108.646-29.9909Q107.599-28.5092 107.786-26.9603Q107.972-25.4114 109.288-24.479Z"/>
  </g>
  <g id="Light-M" transform="matrix(1 0 0 1 1098.61 1126)">
   <path d="M22.9998 10.1604L86.0217 10.1604Q96.588 10.1604 96.588 2.96655Q96.588-1.80303 93.6873-7.16129Q90.7866-12.5195 85.321-17.2375Q79.8553-21.9555 72.0741-24.929Q64.2929-27.9025 54.5105-27.9025Q44.7564-27.9025 36.9922-24.929Q29.228-21.9555 23.7312-17.2375Q18.2344-12.5195 15.3477-7.16129Q12.4609-1.80303 12.4609 2.96655Q12.4609 10.1604 22.9998 10.1604ZM21.4686 4.43274Q19.8357 4.43274 19.1682 3.96906Q18.5007 3.50539 18.5007 2.34328Q18.5007-1.11757 20.8924-5.33989Q23.284-9.56221 27.9047-13.4041Q32.5253-17.2459 39.2087-19.7241Q45.8922-22.2023 54.5105-22.2023Q63.1293-22.2023 69.8127-19.7241Q76.4962-17.2459 81.1307-13.4041Q85.7653-9.56221 88.1568-5.33989Q90.5482-1.11757 90.5482 2.34328Q90.5482 3.50539 89.8979 3.96906Q89.2476 4.43274 87.5529 4.43274ZM54.5658-35.0254Q60.2565-35.0254 64.9262-38.0335Q69.5959-41.0417 72.3409-46.1438Q75.0858-51.2459 75.0858-57.4559Q75.0858-63.5619 72.3304-68.5326Q69.575-73.5033 64.9228-76.4386Q60.2705-79.374 54.5658-79.374Q48.9309-79.374 44.2612-76.404Q39.5915-73.434 36.8189-68.4461Q34.0462-63.4582 34.0737-57.3866Q34.1016-51.1766 36.8637-46.1091Q39.6259-41.0417 44.2505-38.0335Q48.8751-35.0254 54.5658-35.0254ZM54.5658-40.7535Q50.6-40.7535 47.3225-42.965Q44.0449-45.1765 42.0792-48.9525Q40.1134-52.7284 40.1134-57.3866Q40.0855-61.9412 42.048-65.6202Q44.0105-69.2992 47.3155-71.4725Q50.6204-73.6459 54.5658-73.6459Q58.5461-73.6459 61.8373-71.4897Q65.1286-69.3336 67.0874-65.686Q69.0461-62.0383 69.0461-57.4559Q69.0461-52.7973 67.0976-49.0041Q65.149-45.2109 61.8578-42.9822Q58.5665-40.7535 54.5658-40.7535ZM91.6773-36.957Q92.6674-36.2989 93.831-36.4998Q94.9946-36.7008 95.7568-37.7676Q98.5605-41.4506 100.211-46.5736Q101.862-51.6966 101.862-57.4559Q101.862-63.2776 100.211-68.3831Q98.5605-73.4886 95.7568-77.1442Q94.9946-78.2385 93.831-78.4394Q92.6674-78.6403 91.6773-77.9478Q90.5481-77.1856 90.3819-75.9251Q90.2156-74.6645 91.109-73.5358Q93.5456-70.1582 94.7879-66.1501Q96.0302-62.142 96.0302-57.4559Q96.0302-52.8322 94.7705-48.8103Q93.5107-44.7885 91.109-41.4383Q90.2505-40.2473 90.3993-39.0177Q90.5481-37.788 91.6773-36.957ZM108.792-24.1711Q109.852-23.4438 111.012-23.6619Q112.172-23.88 112.968-24.9469Q117.669-31.2676 120.348-39.8066Q123.027-48.3455 123.027-57.4559Q123.027-66.6281 120.348-75.1847Q117.669-83.7414 112.968-89.9994Q112.172-91.0592 111.012-91.2774Q109.852-91.4955 108.792-90.803Q107.767-90.0757 107.614-88.8809Q107.462-87.6862 108.321-86.5575Q112.571-80.6527 114.883-73.1453Q117.195-65.638 117.195-57.4559Q117.195-49.3017 114.848-41.8116Q112.501-34.3215 108.321-28.4166Q107.497-27.26 107.632-26.079Q107.767-24.898 108.792-24.1711Z"/>
  </g>
  <g id="Thin-M" transform="matrix(1 0 0 1 802.656 1126)">
   <path d="M21.1215 9.34556L86.3612 9.34556Q95.0716 9.34556 95.0716 2.94374Q95.0716-1.80303 92.1936-7.05939Q89.3156-12.3157 83.9404-16.9433Q78.5652-21.5708 70.9426-24.4537Q63.3199-27.3367 53.7409-27.3367Q44.2135-27.3367 36.5962-24.4537Q28.979-21.5708 23.5726-16.9433Q18.1663-12.3157 15.3136-7.05939Q12.4609-1.80303 12.4609 2.94374Q12.4609 9.34556 21.1215 9.34556ZM20.6314 5.81332Q18.0703 5.81332 17.0861 5.12323Q16.1019 4.43313 16.1019 2.72806Q16.1019-1.32136 18.6407-5.93969Q21.1795-10.558 26.0378-14.6375Q30.8961-18.717 37.8736-21.2856Q44.8511-23.8543 53.7409-23.8543Q62.6316-23.8543 69.6091-21.2856Q76.5867-18.717 81.4703-14.6375Q86.3539-10.558 88.8923-5.93969Q91.4307-1.32136 91.4307 2.72806Q91.4307 4.43313 90.4523 5.12323Q89.4739 5.81332 86.8514 5.81332ZM53.8415-34.9349Q59.3965-34.9349 63.8852-37.8299Q68.3739-40.7249 70.9943-45.6685Q73.6148-50.612 73.6148-56.7544Q73.6148-62.6566 70.9499-67.5142Q68.2849-72.3718 63.8025-75.2619Q59.32-78.1519 53.8415-78.1519Q48.3879-78.1519 43.8992-75.2498Q39.4105-72.3477 36.7398-67.4843Q34.0691-62.6209 34.1189-56.7303Q34.1696-50.588 36.7959-45.6565Q39.4221-40.7249 43.8543-37.8299Q48.2865-34.9349 53.8415-34.9349ZM53.8415-38.468Q49.3327-38.468 45.693-40.8831Q42.0533-43.2982 39.9066-47.4363Q37.7598-51.5745 37.7598-56.7303Q37.7091-61.6469 39.8754-65.7107Q42.0417-69.7745 45.7313-72.1967Q49.4208-74.6188 53.8415-74.6188Q58.2746-74.6188 61.9392-72.2025Q65.6039-69.7861 67.7889-65.7539Q69.9739-61.7216 69.9739-56.7544Q69.9739-51.5977 67.8329-47.4537Q65.692-43.3098 62.0273-40.8889Q58.3627-38.468 53.8415-38.468ZM92.3111-36.6627Q92.9389-36.2309 93.6272-36.3413Q94.3155-36.4517 94.7838-37.0661Q97.5875-40.7038 99.34-45.7363Q101.093-50.7688 101.093-56.7544Q101.093-62.8023 99.34-67.8285Q97.5875-72.8548 94.7838-76.4427Q94.3155-77.1069 93.6272-77.2174Q92.9389-77.3278 92.3111-76.8844Q91.6344-76.416 91.536-75.6534Q91.4376-74.8907 91.9915-74.2149Q94.7905-70.3167 96.1571-66.1388Q97.5238-61.961 97.5238-56.7544Q97.5238-51.6101 96.1509-47.4073Q94.778-43.2045 91.9915-39.3562Q91.4501-38.618 91.5422-37.8861Q91.6344-37.1542 92.3111-36.6627ZM108.136-23.7639Q108.788-23.308 109.496-23.4242Q110.203-23.5405 110.683-24.1549Q115.406-30.2946 118.187-38.9127Q120.968-47.5307 120.968-56.7544Q120.968-66.0395 118.187-74.6642Q115.406-83.2889 110.683-89.3655Q110.203-90.0182 109.496-90.1344Q108.788-90.2506 108.136-89.8072Q107.495-89.3514 107.422-88.6319Q107.348-87.9124 107.891-87.2366Q112.457-81.0374 114.928-73.2246Q117.399-65.4118 117.399-56.7544Q117.399-48.1477 114.916-40.3407Q112.433-32.5337 107.891-26.3345Q107.361-25.608 107.428-24.9134Q107.495-24.2189 108.136-23.7639Z"/>
  </g>
  <g id="Ultralight-M" transform="matrix(1 0 0 1 506.333 1126)">
   <path d="M20.1595 8.92822L86.5351 8.92822Q94.295 8.92822 94.295 2.93205Q94.295-1.80303 91.4285-7.00719Q88.5621-12.2114 83.2333-16.7925Q77.9044-21.3737 70.363-24.2103Q62.8216-27.0469 53.3468-27.0469Q43.9354-27.0469 36.3934-24.2103Q28.8514-21.3737 23.4914-16.7925Q18.1315-12.2114 15.2962-7.00719Q12.4609-1.80303 12.4609 2.93205Q12.4609 8.92822 20.1595 8.92822ZM20.2025 6.52045Q17.1661 6.52045 16.0197 5.71438Q14.8732 4.90831 14.8732 2.92515Q14.8732-1.42575 17.4874-6.2469Q20.1016-11.0681 25.0816-15.2692Q30.0616-19.4704 37.1897-22.0855Q44.3179-24.7005 53.3468-24.7005Q62.3767-24.7005 69.5048-22.0855Q76.633-19.4704 81.6442-15.2692Q86.6554-11.0681 89.2691-6.2469Q91.8827-1.42575 91.8827 2.92515Q91.8827 4.90831 90.7362 5.71438Q89.5897 6.52045 86.4921 6.52045ZM53.4705-34.8886Q58.956-34.8886 63.352-37.7256Q67.748-40.5627 70.3046-45.4251Q72.8613-50.2874 72.8613-56.3951Q72.8613-62.1929 70.2427-66.9925Q67.6242-71.7922 63.2286-74.6591Q58.8331-77.526 53.4705-77.526Q48.1098-77.526 43.7138-74.6587Q39.3178-71.7913 36.6993-66.9917Q34.0807-62.1921 34.1421-56.3942Q34.2045-50.2865 36.7611-45.4246Q39.3177-40.5627 43.6514-37.7256Q47.985-34.8886 53.4705-34.8886ZM53.4705-37.2974Q48.6836-37.2974 44.8584-39.8168Q41.0332-42.3361 38.7938-46.6598Q36.5543-50.9834 36.5543-56.3942Q36.492-61.4961 38.7626-65.757Q41.0333-70.0179 44.9198-72.5676Q48.8064-75.1172 53.4705-75.1172Q58.1356-75.1172 61.9914-72.5675Q65.8473-70.0178 68.1482-65.7886Q70.449-61.5594 70.449-56.3951Q70.449-50.9832 68.2096-46.6596Q65.9701-42.3361 62.1142-39.8167Q58.2583-37.2974 53.4705-37.2974ZM92.6358-36.512Q93.0779-36.196 93.5228-36.2601Q93.9677-36.3242 94.2854-36.7068Q97.0892-40.3214 98.8937-45.3075Q100.698-50.2936 100.698-56.3951Q100.698-62.5588 98.8937-67.5445Q97.0892-72.5302 94.2854-76.0834Q93.9677-76.5274 93.5228-76.5914Q93.0779-76.6555 92.6358-76.3396Q92.1908-76.0219 92.1272-75.5142Q92.0635-75.0066 92.4435-74.5627Q95.4281-70.3979 96.8584-66.1331Q98.2887-61.8683 98.2887-56.3951Q98.2887-50.9842 96.8579-46.6887Q95.4271-42.3932 92.4435-38.2898Q92.0645-37.7836 92.1277-37.3066Q92.1908-36.8296 92.6358-36.512ZM107.799-23.5553Q108.243-23.2385 108.719-23.3025Q109.195-23.3665 109.512-23.7492Q114.247-29.7963 117.08-38.4548Q119.913-47.1134 119.913-56.3951Q119.913-65.7381 117.08-74.3976Q114.247-83.0572 109.512-89.0409Q109.195-89.485 108.719-89.549Q108.243-89.613 107.799-89.2972Q107.356-88.9804 107.323-88.5043Q107.29-88.0283 107.67-87.5844Q112.399-81.2345 114.951-73.2652Q117.503-65.2959 117.503-56.3951Q117.503-47.5566 114.951-39.5873Q112.398-31.618 107.67-25.2681Q107.291-24.7618 107.324-24.3164Q107.356-23.8711 107.799-23.5553Z"/>
  </g>
  <g id="Black-S" transform="matrix(1 0 0 1 2888.97 696)">
   <path d="M21.4355 2.63672L67.4316 2.63672Q79.1016 2.63672 79.1016-6.15234Q79.1016-10.9375 76.4404-15.332Q73.7793-19.7266 69.043-23.1689Q64.3066-26.6113 58.0078-28.6377Q51.709-30.6641 44.4336-30.6641Q37.1582-30.6641 30.8594-28.6377Q24.5605-26.6113 19.8242-23.1689Q15.0879-19.7266 12.4268-15.332Q9.76562-10.9375 9.76562-6.15234Q9.76562 2.63672 21.4355 2.63672ZM23.0469-8.10547Q22.7051-8.10547 22.583-8.3252Q22.4609-8.54492 22.4609-8.74023Q22.4609-10.1562 23.9746-12.0605Q25.4883-13.9648 28.3203-15.7715Q31.1523-17.5781 35.2295-18.75Q39.3066-19.9219 44.4336-19.9219Q49.5605-19.9219 53.6377-18.75Q57.7148-17.5781 60.5469-15.7715Q63.3789-13.9648 64.8926-12.0605Q66.4062-10.1562 66.4062-8.74023Q66.4062-8.54492 66.3086-8.3252Q66.2109-8.10547 65.8203-8.10547ZM44.4336-33.7402Q49.4141-33.7402 53.4424-36.3037Q57.4707-38.8672 59.8389-43.2129Q62.207-47.5586 62.207-52.8809Q62.207-58.0566 59.79-62.3291Q57.373-66.6016 53.3447-69.1895Q49.3164-71.7773 44.4336-71.7773Q39.5508-71.7773 35.498-69.1895Q31.4453-66.6016 29.0527-62.3291Q26.6602-58.0566 26.6602-52.8809Q26.709-47.5586 29.0527-43.2129Q31.3965-38.8672 35.4248-36.3037Q39.4531-33.7402 44.4336-33.7402ZM44.4336-44.4824Q42.5293-44.4824 40.918-45.5566Q39.3066-46.6309 38.3545-48.5596Q37.4023-50.4883 37.4023-52.9297Q37.4023-55.1758 38.3789-57.0068Q39.3555-58.8379 40.9668-59.9365Q42.5781-61.0352 44.4336-61.0352Q46.3379-61.0352 47.9248-59.9365Q49.5117-58.8379 50.4883-56.9824Q51.4648-55.127 51.4648-52.8809Q51.4648-50.4883 50.5127-48.584Q49.5605-46.6797 47.9736-45.5811Q46.3867-44.4824 44.4336-44.4824ZM75.1953-32.5195Q77.5879-31.1035 80.1025-31.5674Q82.6172-32.0312 83.9844-33.9844Q86.8164-37.9883 88.3789-42.7979Q89.9414-47.6074 89.9414-52.8809Q89.9414-58.1543 88.3789-62.9883Q86.8164-67.8223 83.9844-71.8262Q82.6172-73.7305 80.1025-74.1943Q77.5879-74.6582 75.1953-73.2422Q72.7051-71.7773 72.2168-68.9453Q71.7285-66.1133 73.8281-62.3535Q75.0488-60.2539 75.6836-57.8613Q76.3184-55.4688 76.3184-52.8809Q76.3184-50.3418 75.6836-47.9248Q75.0488-45.5078 73.8281-43.4082Q71.7285-39.6973 72.2168-36.8408Q72.7051-33.9844 75.1953-32.5195ZM95.9961-21.0449Q98.4375-19.7266 101.025-20.2881Q103.613-20.8496 105.078-23.1934Q109.131-29.6387 111.304-37.1826Q113.477-44.7266 113.477-52.8809Q113.477-61.0352 111.304-68.5791Q109.131-76.123 105.078-82.5684Q103.613-84.9121 101.025-85.4736Q98.4375-86.0352 95.9961-84.7168Q93.1641-83.2031 92.7979-80.2002Q92.4316-77.1973 94.2383-74.1699Q96.9727-69.5312 98.4375-64.1113Q99.9023-58.6914 99.9023-52.8809Q99.9023-47.0703 98.4375-41.6504Q96.9727-36.2305 94.2383-31.5918Q92.4316-28.5645 92.7979-25.5859Q93.1641-22.6074 95.9961-21.0449Z"/>
  </g>
  <g id="Heavy-S" transform="matrix(1 0 0 1 2592.49 696)">
   <path d="M21.0552 2.27946L67.351 2.27946Q78.6406 2.27946 78.6406-5.9449Q78.6406-10.488 76.0659-14.8595Q73.4912-19.231 68.8413-22.7541Q64.1914-26.2771 57.9041-28.3957Q51.6168-30.5142 44.2031-30.5142Q36.7894-30.5142 30.5079-28.3957Q24.2263-26.2771 19.5707-22.7541Q14.915-19.231 12.3403-14.8595Q9.76562-10.488 9.76562-5.9449Q9.76562 2.27946 21.0552 2.27946ZM21.7677-7.48315Q21.4143-7.48315 21.2692-7.68559Q21.1241-7.88803 21.1241-8.12944Q21.1241-9.71832 22.6896-11.8646Q24.2552-14.0109 27.2197-16.0481Q30.1843-18.0852 34.4689-19.4184Q38.7535-20.7516 44.2031-20.7516Q49.6527-20.7516 53.9373-19.4184Q58.2219-18.0852 61.1865-16.0481Q64.151-14.0109 65.7166-11.8646Q67.2821-9.71832 67.2821-8.12944Q67.2821-7.88803 67.1614-7.68559Q67.0407-7.48315 66.6385-7.48315ZM44.2031-34.0744Q49.0914-34.0744 53.0736-36.6149Q57.0558-39.1553 59.4009-43.4549Q61.7461-47.7545 61.7461-52.9846Q61.7461-58.1143 59.3694-62.3233Q56.9927-66.5324 53.0163-69.0627Q49.0398-71.593 44.2031-71.593Q39.3894-71.593 35.3886-69.0512Q31.3877-66.5094 29.0239-62.2945Q26.6602-58.0797 26.6602-52.9615Q26.6975-47.7315 29.0297-43.4434Q31.3619-39.1553 35.3384-36.6149Q39.3148-34.0744 44.2031-34.0744ZM44.2031-43.8371Q42.1375-43.8371 40.3821-45.0208Q38.6267-46.2045 37.5766-48.2945Q36.5265-50.3846 36.5265-52.9988Q36.5265-55.4754 37.5895-57.4678Q38.6525-59.4602 40.4079-60.6453Q42.1632-61.8303 44.2031-61.8303Q46.2918-61.8303 48.0285-60.651Q49.7653-59.4717 50.8225-57.4664Q51.8797-55.4612 51.8797-52.9846Q51.8797-50.4076 50.8354-48.3304Q49.791-46.2533 48.0543-45.0452Q46.3176-43.8371 44.2031-43.8371ZM74.2618-33.5452Q76.3548-32.2905 78.5986-32.7025Q80.8424-33.1145 82.0944-34.9063Q84.7766-38.6567 86.2526-43.2992Q87.7287-47.9416 87.7287-52.9846Q87.7287-58.0391 86.2526-62.6944Q84.7766-67.3498 82.0944-71.1001Q80.8424-72.8546 78.5986-73.2666Q76.3548-73.6786 74.2618-72.4124Q72.0482-71.0859 71.629-68.5765Q71.2099-66.0672 73.056-62.8836Q74.3574-60.7725 75.044-58.2416Q75.7306-55.7108 75.7306-52.9846Q75.7306-50.3072 75.0382-47.7577Q74.3458-45.2082 73.056-43.097Q71.2214-39.9393 71.6348-37.417Q72.0482-34.8948 74.2618-33.5452ZM93.6105-22.4394Q95.7638-21.2363 98.0578-21.7286Q100.352-22.221 101.69-24.3112Q105.65-30.4454 107.783-37.7704Q109.916-45.0953 109.916-52.9846Q109.916-60.8853 107.783-68.2161Q105.65-75.5468 101.69-81.6695Q100.352-83.7481 98.0578-84.2405Q95.7638-84.7329 93.6105-83.5413Q91.1703-82.189 90.8445-79.5663Q90.5186-76.9437 92.1293-74.3197Q94.9328-69.7502 96.4438-64.29Q97.9547-58.8297 97.9547-52.9846Q97.9547-47.1395 96.4322-41.685Q94.9098-36.2305 92.1293-31.6609Q90.5301-29.037 90.8502-26.433Q91.1703-23.829 93.6105-22.4394Z"/>
  </g>
  <g id="Bold-S" transform="matrix(1 0 0 1 2296.03 696)">
   <path d="M20.6299 1.87988L67.2607 1.87988Q78.125 1.87988 78.125-5.71289Q78.125-9.98535 75.647-14.3311Q73.1689-18.6768 68.6157-22.29Q64.0625-25.9033 57.7881-28.125Q51.5137-30.3467 43.9453-30.3467Q36.377-30.3467 30.1147-28.125Q23.8525-25.9033 19.2871-22.29Q14.7217-18.6768 12.2437-14.3311Q9.76562-9.98535 9.76562-5.71289Q9.76562 1.87988 20.6299 1.87988ZM20.3369-6.78711Q19.9707-6.78711 19.7998-6.97021Q19.6289-7.15332 19.6289-7.44629Q19.6289-9.22852 21.2524-11.6455Q22.876-14.0625 25.9888-16.3574Q29.1016-18.6523 33.6182-20.166Q38.1348-21.6797 43.9453-21.6797Q49.7559-21.6797 54.2725-20.166Q58.7891-18.6523 61.9019-16.3574Q65.0146-14.0625 66.6382-11.6455Q68.2617-9.22852 68.2617-7.44629Q68.2617-7.15332 68.1152-6.97021Q67.9688-6.78711 67.5537-6.78711ZM43.9453-34.4482Q48.7305-34.4482 52.6611-36.9629Q56.5918-39.4775 58.9111-43.7256Q61.2305-47.9736 61.2305-53.1006Q61.2305-58.1787 58.8989-62.3169Q56.5674-66.4551 52.6489-68.9209Q48.7305-71.3867 43.9453-71.3867Q39.209-71.3867 35.2661-68.8965Q31.3232-66.4062 28.9917-62.2559Q26.6602-58.1055 26.6602-53.0518Q26.6846-47.9248 29.0039-43.7012Q31.3232-39.4775 35.2417-36.9629Q39.1602-34.4482 43.9453-34.4482ZM43.9453-43.1152Q41.6992-43.1152 39.7827-44.4214Q37.8662-45.7275 36.7065-47.998Q35.5469-50.2686 35.5469-53.0762Q35.5469-55.8105 36.7065-57.9834Q37.8662-60.1562 39.7827-61.438Q41.6992-62.7197 43.9453-62.7197Q46.2402-62.7197 48.1445-61.4502Q50.0488-60.1807 51.1963-58.0078Q52.3438-55.835 52.3438-53.1006Q52.3438-50.3174 51.1963-48.0469Q50.0488-45.7764 48.1445-44.4458Q46.2402-43.1152 43.9453-43.1152ZM73.2178-34.6924Q74.9756-33.6182 76.9165-33.9722Q78.8574-34.3262 79.9805-35.9375Q82.4951-39.4043 83.8745-43.8599Q85.2539-48.3154 85.2539-53.1006Q85.2539-57.9102 83.8745-62.3657Q82.4951-66.8213 79.9805-70.2881Q78.8574-71.875 76.9165-72.229Q74.9756-72.583 73.2178-71.4844Q71.3135-70.3125 70.9717-68.1641Q70.6299-66.0156 72.1924-63.4766Q73.584-61.3525 74.3286-58.667Q75.0732-55.9814 75.0732-53.1006Q75.0732-50.2686 74.3164-47.5708Q73.5596-44.873 72.1924-42.749Q70.6543-40.21 70.9839-38.0615Q71.3135-35.9131 73.2178-34.6924ZM90.9424-23.999Q92.7734-22.9248 94.7388-23.3398Q96.7041-23.7549 97.9004-25.5615Q101.758-31.3477 103.845-38.4277Q105.933-45.5078 105.933-53.1006Q105.933-60.7178 103.845-67.8101Q101.758-74.9023 97.9004-80.6641Q96.7041-82.4463 94.7388-82.8613Q92.7734-83.2764 90.9424-82.2266Q88.9404-81.0547 88.6597-78.8574Q88.3789-76.6602 89.7705-74.4873Q92.6514-69.9951 94.2139-64.4897Q95.7764-58.9844 95.7764-53.1006Q95.7764-47.2168 94.1895-41.7236Q92.6025-36.2305 89.7705-31.7383Q88.4033-29.5654 88.6719-27.3804Q88.9404-25.1953 90.9424-23.999Z"/>
  </g>
  <g id="Semibold-S" transform="matrix(1 0 0 1 1999.5 696)">
   <path d="M20.3366 1.60439L67.1985 1.60439Q77.7695 1.60439 77.7695-5.55293Q77.7695-9.63877 75.3582-13.9667Q72.9468-18.2946 68.4602-21.9701Q63.9736-25.6456 57.7081-27.9384Q51.4426-30.2312 43.7676-30.2312Q36.0926-30.2312 29.8437-27.9384Q23.5948-25.6456 19.0916-21.9701Q14.5884-18.2946 12.177-13.9667Q9.76562-9.63877 9.76562-5.55293Q9.76562 1.60439 20.3366 1.60439ZM19.3505-6.30723Q18.9754-6.30723 18.7867-6.477Q18.598-6.64678 18.598-6.97529Q18.598-8.89082 20.2616-11.4944Q21.9251-14.098 25.1401-16.5707Q28.3551-19.0434 33.0316-20.6814Q37.7082-22.3195 43.7676-22.3195Q49.827-22.3195 54.5035-20.6814Q59.1801-19.0434 62.3951-16.5707Q65.6101-14.098 67.2736-11.4944Q68.9371-8.89082 68.9371-6.97529Q68.9371-6.64678 68.7729-6.477Q68.6086-6.30723 68.1847-6.30723ZM43.7676-34.706Q48.4816-34.706 52.3768-37.2028Q56.2719-39.6997 58.5734-43.9122Q60.875-48.1247 60.875-53.1806Q60.875-58.2231 58.5746-62.3125Q56.2741-66.4018 52.3957-68.8231Q48.5172-71.2445 43.7676-71.2445Q39.0846-71.2445 35.1817-68.7898Q31.2788-66.3352 28.9695-62.2292Q26.6602-58.1232 26.6602-53.114Q26.6757-48.0581 28.9861-43.8789Q31.2966-39.6997 35.175-37.2028Q39.0535-34.706 43.7676-34.706ZM43.7676-42.6176Q41.3971-42.6176 39.3695-44.0082Q37.3419-45.3987 36.1067-47.7937Q34.8715-50.1886 34.8715-53.1295Q34.8715-56.0416 36.0978-58.3389Q37.3241-60.6361 39.3517-61.9845Q41.3793-63.3329 43.7676-63.3329Q46.2047-63.3329 48.2245-62.0012Q50.2443-60.6694 51.454-58.3811Q52.6637-56.0927 52.6637-53.1806Q52.6637-50.2552 51.4451-47.8514Q50.2266-45.4476 48.2067-44.0326Q46.1869-42.6176 43.7676-42.6176ZM72.4979-35.4833Q74.0247-34.5335 75.7568-34.8475Q77.4889-35.1615 78.523-36.6484Q80.9222-39.9197 82.2349-44.2464Q83.5477-48.5731 83.5477-53.1806Q83.5477-57.8213 82.2349-62.1391Q80.9222-66.4569 78.523-69.7282Q77.4889-71.1996 75.7568-71.5136Q74.0247-71.8276 72.4979-70.8445Q70.8069-69.7793 70.5185-67.8797Q70.23-65.9801 71.597-63.8854Q73.0508-61.7524 73.8354-58.9603Q74.62-56.1681 74.62-53.1806Q74.62-50.2419 73.8187-47.4419Q73.0175-44.642 71.597-42.5091Q70.2633-40.3966 70.5351-38.5059Q70.8069-36.6151 72.4979-35.4833ZM89.1028-25.0743Q90.7117-24.089 92.4504-24.4507Q94.1892-24.8124 95.2877-26.4235Q99.074-31.9697 101.13-38.881Q103.187-45.7922 103.187-53.1806Q103.187-60.6022 101.13-67.5301Q99.074-74.458 95.2877-79.9709Q94.1892-81.5487 92.4504-81.9104Q90.7117-82.2722 89.1028-81.3201Q87.403-80.2727 87.1534-78.3687Q86.9037-76.4646 88.1442-74.6028Q91.0784-70.164 92.6765-64.6275Q94.2745-59.091 94.2745-53.1806Q94.2745-47.2701 92.6432-41.7503Q91.0118-36.2305 88.1442-31.7916Q86.937-29.9298 87.17-28.0335Q87.403-26.1373 89.1028-25.0743Z"/>
  </g>
  <g id="Medium-S" transform="matrix(1 0 0 1 1702.92 696)">
   <path d="M20.1143 1.39551L67.1514 1.39551Q77.5 1.39551 77.5-5.43164Q77.5-9.37598 75.1392-13.6904Q72.7783-18.0049 68.3423-21.7275Q63.9062-25.4502 57.6475-27.7969Q51.3887-30.1436 43.6328-30.1436Q35.877-30.1436 29.6382-27.7969Q23.3994-25.4502 18.9434-21.7275Q14.4873-18.0049 12.1265-13.6904Q9.76562-9.37598 9.76562-5.43164Q9.76562 1.39551 20.1143 1.39551ZM18.6025-5.94336Q18.2207-5.94336 18.0186-6.10303Q17.8164-6.2627 17.8164-6.61816Q17.8164-8.63477 19.5103-11.3799Q21.2041-14.125 24.4966-16.7324Q27.7891-19.3398 32.5869-21.0723Q37.3848-22.8047 43.6328-22.8047Q49.8809-22.8047 54.6787-21.0723Q59.4766-19.3398 62.769-16.7324Q66.0615-14.125 67.7554-11.3799Q69.4492-8.63477 69.4492-6.61816Q69.4492-6.2627 69.2715-6.10303Q69.0938-5.94336 68.6631-5.94336ZM43.6328-34.9014Q48.293-34.9014 52.1611-37.3848Q56.0293-39.8682 58.3174-44.0537Q60.6055-48.2393 60.6055-53.2412Q60.6055-58.2568 58.3286-62.3091Q56.0518-66.3613 52.2036-68.749Q48.3555-71.1367 43.6328-71.1367Q38.9902-71.1367 35.1177-68.709Q31.2451-66.2812 28.9526-62.209Q26.6602-58.1367 26.6602-53.1611Q26.6689-48.1592 28.9727-44.0137Q31.2764-39.8682 35.1245-37.3848Q38.9727-34.9014 43.6328-34.9014ZM43.6328-42.2402Q41.168-42.2402 39.0562-43.6948Q36.9443-45.1494 35.6519-47.6387Q34.3594-50.1279 34.3594-53.1699Q34.3594-56.2168 35.6362-58.6084Q36.9131-61 39.0249-62.3989Q41.1367-63.7979 43.6328-63.7979Q46.1777-63.7979 48.2852-62.4189Q50.3926-61.04 51.6494-58.6641Q52.9062-56.2881 52.9062-53.2412Q52.9062-50.208 51.6338-47.7031Q50.3613-45.1982 48.2539-43.7192Q46.1465-42.2402 43.6328-42.2402ZM71.9521-36.083Q73.3037-35.2275 74.8774-35.5112Q76.4512-35.7949 77.418-37.1875Q79.7295-40.3105 80.9917-44.5396Q82.2539-48.7686 82.2539-53.2412Q82.2539-57.7539 80.9917-61.9673Q79.7295-66.1807 77.418-69.3037Q76.4512-70.6875 74.8774-70.9712Q73.3037-71.2549 71.9521-70.3594Q70.4229-69.375 70.1748-67.6641Q69.9268-65.9531 71.1455-64.1953Q72.6465-62.0557 73.4614-59.1826Q74.2764-56.3096 74.2764-53.2412Q74.2764-50.2217 73.4414-47.3442Q72.6064-44.4668 71.1455-42.3271Q69.9668-40.5381 70.1948-38.8428Q70.4229-37.1475 71.9521-36.083ZM87.708-25.8896Q89.1484-24.9717 90.7153-25.293Q92.2822-25.6143 93.3066-27.0771Q97.0391-32.4414 99.0718-39.2246Q101.104-46.0078 101.104-53.2412Q101.104-60.5146 99.0718-67.3179Q97.0391-74.1211 93.3066-79.4453Q92.2822-80.8682 90.7153-81.1895Q89.1484-81.5107 87.708-80.6328Q86.2373-79.6797 86.0112-77.998Q85.7852-76.3164 86.9111-74.6904Q89.8857-70.292 91.5107-64.7319Q93.1357-59.1719 93.1357-53.2412Q93.1357-47.3105 91.4707-41.7705Q89.8057-36.2305 86.9111-31.832Q85.8252-30.2061 86.0312-28.5288Q86.2373-26.8516 87.708-25.8896Z"/>
  </g>
  <g id="Regular-S" transform="matrix(1 0 0 1 1406.39 696)">
   <path d="M19.8242 1.12305L67.0898 1.12305Q77.1484 1.12305 77.1484-5.27344Q77.1484-9.0332 74.8535-13.3301Q72.5586-17.627 68.1885-21.4111Q63.8184-25.1953 57.5684-27.6123Q51.3184-30.0293 43.457-30.0293Q35.5957-30.0293 29.3701-27.6123Q23.1445-25.1953 18.75-21.4111Q14.3555-17.627 12.0605-13.3301Q9.76562-9.0332 9.76562-5.27344Q9.76562 1.12305 19.8242 1.12305ZM17.627-5.46875Q17.2363-5.46875 17.0166-5.61523Q16.7969-5.76172 16.7969-6.15234Q16.7969-8.30078 18.5303-11.2305Q20.2637-14.1602 23.6572-16.9434Q27.0508-19.7266 32.0068-21.582Q36.9629-23.4375 43.457-23.4375Q49.9512-23.4375 54.9072-21.582Q59.8633-19.7266 63.2568-16.9434Q66.6504-14.1602 68.3838-11.2305Q70.1172-8.30078 70.1172-6.15234Q70.1172-5.76172 69.9219-5.61523Q69.7266-5.46875 69.2871-5.46875ZM43.457-35.1562Q48.0469-35.1562 51.8799-37.6221Q55.7129-40.0879 57.9834-44.2383Q60.2539-48.3887 60.2539-53.3203Q60.2539-58.3008 58.0078-62.3047Q55.7617-66.3086 51.9531-68.6523Q48.1445-70.9961 43.457-70.9961Q38.8672-70.9961 35.0342-68.6035Q31.2012-66.2109 28.9307-62.1826Q26.6602-58.1543 26.6602-53.2227Q26.6602-48.291 28.9551-44.1895Q31.25-40.0879 35.0586-37.6221Q38.8672-35.1562 43.457-35.1562ZM43.457-41.748Q40.8691-41.748 38.6475-43.2861Q36.4258-44.8242 35.0586-47.4365Q33.6914-50.0488 33.6914-53.2227Q33.6914-56.4453 35.0342-58.96Q36.377-61.4746 38.5986-62.9395Q40.8203-64.4043 43.457-64.4043Q46.1426-64.4043 48.3643-62.9639Q50.5859-61.5234 51.9043-59.0332Q53.2227-56.543 53.2227-53.3203Q53.2227-50.1465 51.8799-47.5098Q50.5371-44.873 48.3154-43.3105Q46.0938-41.748 43.457-41.748ZM71.2402-36.8652Q72.3633-36.1328 73.7305-36.377Q75.0977-36.6211 75.9766-37.8906Q78.1738-40.8203 79.3701-44.9219Q80.5664-49.0234 80.5664-53.3203Q80.5664-57.666 79.3701-61.7432Q78.1738-65.8203 75.9766-68.75Q75.0977-70.0195 73.7305-70.2637Q72.3633-70.5078 71.2402-69.7266Q69.9219-68.8477 69.7266-67.3828Q69.5312-65.918 70.5566-64.5996Q72.1191-62.4512 72.9736-59.4727Q73.8281-56.4941 73.8281-53.3203Q73.8281-50.1953 72.9492-47.2168Q72.0703-44.2383 70.5566-42.0898Q69.5801-40.7227 69.751-39.2822Q69.9219-37.8418 71.2402-36.8652ZM85.8887-26.9531Q87.1094-26.123 88.4521-26.3916Q89.7949-26.6602 90.7227-27.9297Q94.3848-33.0566 96.3867-39.6729Q98.3887-46.2891 98.3887-53.3203Q98.3887-60.4004 96.3867-67.041Q94.3848-73.6816 90.7227-78.7598Q89.7949-79.9805 88.4521-80.249Q87.1094-80.5176 85.8887-79.7363Q84.7168-78.9062 84.5215-77.5146Q84.3262-76.123 85.3027-74.8047Q88.3301-70.459 89.9902-64.8682Q91.6504-59.2773 91.6504-53.3203Q91.6504-47.3633 89.9414-41.7969Q88.2324-36.2305 85.3027-31.8848Q84.375-30.5664 84.5459-29.1748Q84.7168-27.7832 85.8887-26.9531Z"/>
  </g>
  <g id="Light-S" transform="matrix(1 0 0 1 1110.18 696)">
   <path d="M18.5679 0.578054L67.3169 0.578054Q76.1342 0.578054 76.1342-5.2887Q76.1342-9.0332 73.8544-13.2619Q71.5747-17.4906 67.2651-21.2143Q62.9555-24.9379 56.8115-27.2944Q50.6676-29.6509 42.9423-29.6509Q35.2325-29.6509 29.1053-27.2944Q22.978-24.9379 18.644-21.2143Q14.3099-17.4906 12.0378-13.2619Q9.76562-9.0332 9.76562-5.2887Q9.76562 0.578054 18.5679 0.578054ZM17.067-4.54534Q16.0556-4.54534 15.624-4.84327Q15.1924-5.14119 15.1924-5.89498Q15.1924-8.43709 17.0242-11.6316Q18.856-14.8262 22.4085-17.7684Q25.961-20.7105 31.1138-22.6265Q36.2666-24.5425 42.9423-24.5425Q49.6183-24.5425 54.771-22.6265Q59.9238-20.7105 63.4839-17.7684Q67.0441-14.8262 68.8758-11.6316Q70.7074-8.43709 70.7074-5.89498Q70.7074-5.14119 70.2927-4.84327Q69.8779-4.54534 68.8179-4.54534ZM42.9726-35.0957Q47.4716-35.0957 51.1836-37.4859Q54.8955-39.876 57.0827-43.9204Q59.27-47.9647 59.27-52.8511Q59.27-57.6953 57.0844-61.6235Q54.8988-65.5518 51.2038-67.8652Q47.5087-70.1787 42.9726-70.1787Q38.504-70.1787 34.7921-67.8315Q31.0801-65.4844 28.8778-61.5393Q26.6754-57.5943 26.6904-52.7837Q26.7057-47.8973 28.9097-43.8867Q31.1137-39.876 34.7936-37.4859Q38.4735-35.0957 42.9726-35.0957ZM42.9726-40.2194Q40.0215-40.2194 37.5576-41.8936Q35.0937-43.5679 33.6054-46.4224Q32.1172-49.277 32.1172-52.7837Q32.1019-56.2485 33.581-59.0205Q35.0601-61.7925 37.539-63.4238Q40.018-65.0551 42.9726-65.0551Q45.961-65.0551 48.4324-63.4406Q50.9038-61.8261 52.3735-59.0786Q53.8432-56.3311 53.8432-52.8511Q53.8432-49.3441 52.3717-46.4728Q50.9003-43.6015 48.4289-41.9104Q45.9574-40.2194 42.9726-40.2194ZM71.6642-36.6684Q72.5449-36.0873 73.5942-36.2709Q74.6435-36.4545 75.3258-37.4214Q77.523-40.3208 78.7874-44.3619Q80.0517-48.4029 80.0517-52.8511Q80.0517-57.3481 78.7874-61.3722Q77.523-65.3964 75.3258-68.2808Q74.6435-69.2627 73.5942-69.4463Q72.5449-69.6299 71.6642-69.0152Q70.6484-68.3329 70.4985-67.2011Q70.3486-66.0693 71.1469-65.0538Q72.9518-62.5572 73.8894-59.4652Q74.8271-56.3731 74.8271-52.8511Q74.8271-49.378 73.8725-46.2784Q72.9179-43.1788 71.1469-40.6972Q70.3824-39.6329 70.5154-38.5254Q70.6484-37.4179 71.6642-36.6684ZM85.4497-26.6808Q86.3981-26.0323 87.4381-26.2327Q88.4781-26.4331 89.194-27.4Q92.8711-32.4059 94.9412-39.075Q97.0113-45.7441 97.0113-52.8511Q97.0113-60.0067 94.9412-66.6929Q92.8711-73.379 89.194-78.3358Q88.4781-79.2842 87.4381-79.4846Q86.3981-79.685 85.4497-79.0703Q84.5352-78.4218 84.3928-77.3481Q84.2504-76.2744 85.0151-75.2589Q88.2543-70.7163 90.0205-64.9212Q91.7867-59.126 91.7867-52.8511Q91.7867-46.5914 89.9868-40.8131Q88.1869-35.0347 85.0151-30.4921Q84.2842-29.4614 84.4097-28.3952Q84.5352-27.329 85.4497-26.6808Z"/>
  </g>
  <g id="Thin-S" transform="matrix(1 0 0 1 814.143 696)">
   <path d="M16.9063-0.142744L67.6173-0.142744Q74.7929-0.142744 74.7929-5.30888Q74.7929-9.0332 72.5331-13.1718Q70.2733-17.3104 66.0438-20.954Q61.8142-24.5976 55.8105-26.874Q49.8069-29.1504 42.2615-29.1504Q34.7522-29.1504 28.7549-26.874Q22.7576-24.5976 18.5037-20.954Q14.2497-17.3104 12.0077-13.1718Q9.76562-9.0332 9.76562-5.30888Q9.76562-0.142744 16.9063-0.142744ZM16.3263-3.32405Q14.4939-3.32405 13.7821-3.82228Q13.0704-4.3205 13.0704-5.55459Q13.0704-8.61738 15.0324-12.1622Q16.9944-15.7071 20.7571-18.8595Q24.5198-22.0118 29.9327-24.0079Q35.3457-26.0039 42.2615-26.0039Q49.178-26.0039 54.5909-24.0079Q60.0039-22.0118 63.7843-18.8595Q67.5647-15.7071 69.5264-12.1622Q71.4881-8.61738 71.4881-5.55459Q71.4881-4.3205 70.7831-3.82228Q70.078-3.32405 68.1973-3.32405ZM42.3318-35.0157Q46.7108-35.0157 50.2626-37.3058Q53.8145-39.5959 55.8916-43.5Q57.9686-47.404 57.9686-52.2305Q57.9686-56.8944 55.8631-60.7226Q53.7576-64.5508 50.2127-66.8242Q46.6679-69.0977 42.3318-69.0977Q38.0237-69.0977 34.4719-66.8106Q30.92-64.5234 28.8078-60.6885Q26.6956-56.8537 26.7304-52.2032Q26.7659-47.3767 28.8496-43.4863Q30.9334-39.5959 34.4431-37.3058Q37.9528-35.0157 42.3318-35.0157ZM42.3318-38.1976Q38.9005-38.1976 36.1162-40.052Q33.3319-41.9063 31.6835-45.0813Q30.0352-48.2562 30.0352-52.2032Q29.9998-55.9881 31.6591-59.1005Q33.3185-62.2129 36.1376-64.0644Q38.9568-65.9158 42.3318-65.9158Q45.7208-65.9158 48.5226-64.0711Q51.3243-62.2263 52.9941-59.1386Q54.6639-56.0509 54.6639-52.2305Q54.6639-48.2829 53.0222-45.1013Q51.3806-41.9197 48.5789-40.0587Q45.7772-38.1976 42.3318-38.1976ZM72.2249-36.4081Q72.785-36.0271 73.4139-36.1306Q74.0427-36.2342 74.4651-36.8009Q76.6623-39.6603 78.0166-43.6212Q79.3709-47.5822 79.3709-52.2305Q79.3709-56.9277 78.0166-60.8817Q76.6623-64.8357 74.4651-67.6602Q74.0427-68.2617 73.4139-68.3653Q72.785-68.4688 72.2249-68.0745Q71.6094-67.6522 71.5195-66.9608Q71.4296-66.2694 71.9276-65.6545Q74.053-62.6975 75.1006-59.4552Q76.1482-56.213 76.1482-52.2305Q76.1482-48.2969 75.0936-45.0373Q74.039-41.7776 71.9276-38.8554Q71.4436-38.1917 71.5265-37.5244Q71.6094-36.8572 72.2249-36.4081ZM84.8692-26.3205Q85.4573-25.9122 86.0969-26.0224Q86.7365-26.1327 87.1722-26.6993Q90.8691-31.5451 93.0294-38.2842Q95.1896-45.0233 95.1896-52.2305Q95.1896-59.486 93.0294-66.2324Q90.8691-72.9788 87.1722-77.7751Q86.7365-78.3632 86.0969-78.4735Q85.4573-78.5837 84.8692-78.1894Q84.2951-77.781 84.2226-77.1278Q84.1502-76.4745 84.6347-75.8596Q88.1541-71.0567 90.0605-64.9913Q91.967-58.9259 91.967-52.2305Q91.967-45.5706 90.0468-39.5119Q88.1267-33.4532 84.6347-28.6503Q84.1641-28 84.2296-27.3641Q84.2951-26.7283 84.8692-26.3205Z"/>
  </g>
  <g id="Ultralight-S" transform="matrix(1 0 0 1 517.775 696)">
   <path d="M16.0553-0.511932L67.7711-0.511932Q74.1058-0.511932 74.1058-5.31921Q74.1058-9.0332 71.8563-13.1256Q69.6068-17.218 65.4182-20.8206Q61.2297-24.4232 55.2979-26.6586Q49.366-28.894 41.9128-28.894Q34.5062-28.894 28.5755-26.6586Q22.6448-24.4232 18.4319-20.8206Q14.2189-17.218 11.9923-13.1256Q9.76562-9.0332 9.76562-5.31921Q9.76562-0.511932 16.0553-0.511932ZM15.947-2.69852Q13.694-2.69852 12.8387-3.29933Q11.9835-3.90015 11.9835-5.38025Q11.9835-8.70972 14.0121-12.434Q16.0408-16.1583 19.9112-19.4183Q23.7816-22.6784 29.3278-24.7154Q34.874-26.7525 41.9128-26.7525Q48.9525-26.7525 54.4987-24.7154Q60.0449-22.6784 63.9381-19.4183Q67.8314-16.1583 69.8597-12.434Q71.888-8.70972 71.888-5.38025Q71.888-3.90015 71.0342-3.29933Q70.1805-2.69852 67.8795-2.69852ZM42.0036-34.9747Q46.3211-34.9747 49.791-37.2135Q53.2608-39.4524 55.2814-43.2846Q57.3021-47.1169 57.3021-51.9127Q57.3021-56.4842 55.2376-60.2612Q53.1731-64.0381 49.7051-66.291Q46.2372-68.544 42.0036-68.544Q37.7777-68.544 34.3079-66.2876Q30.838-64.0312 28.772-60.2528Q26.7059-56.4743 26.7509-51.9058Q26.7967-47.11 28.8189-43.2812Q30.8411-39.4524 34.2636-37.2135Q37.6862-34.9747 42.0036-34.9747ZM42.0036-37.162Q38.3263-37.162 35.3779-39.1087Q32.4295-41.0553 30.6992-44.3943Q28.9688-47.7333 28.9688-51.9058Q28.923-55.8548 30.6747-59.1415Q32.4265-62.4283 35.4198-64.3925Q38.4132-66.3567 42.0036-66.3567Q45.5978-66.3567 48.5687-64.394Q51.5396-62.4313 53.3119-59.1694Q55.0842-55.9074 55.0842-51.9127Q55.0842-47.7394 53.3554-44.3989Q51.6266-41.0583 48.6557-39.1102Q45.6848-37.162 42.0036-37.162ZM72.5121-36.2747Q72.908-35.9962 73.3215-36.0588Q73.735-36.1214 74.0242-36.483Q76.2215-39.3219 77.6218-43.2419Q79.0222-47.1619 79.0222-51.9127Q79.0222-56.7123 77.6218-60.6304Q76.2215-64.5485 74.0242-67.3424Q73.735-67.749 73.3215-67.8116Q72.908-67.8741 72.5121-67.5926Q72.1016-67.3035 72.0425-66.8377Q71.9833-66.3719 72.3274-65.9622Q74.617-62.7693 75.721-59.4501Q76.825-56.131 76.825-51.9127Q76.825-47.7432 75.7191-44.4016Q74.6132-41.0599 72.3274-37.912Q71.9872-37.4535 72.0444-37.0117Q72.1016-36.57 72.5121-36.2747ZM84.5718-26.136Q84.9754-25.8507 85.4099-25.9148Q85.8444-25.9789 86.1366-26.3405Q89.8438-31.1043 92.0502-37.8792Q94.2566-44.6541 94.2566-51.9127Q94.2566-59.2194 92.0502-65.9966Q89.8438-72.7737 86.1366-77.4879Q85.8444-77.8915 85.4099-77.9556Q84.9754-78.0197 84.5718-77.7382Q84.1721-77.4529 84.1354-77.0149Q84.0988-76.577 84.4398-76.1673Q88.1027-71.2311 90.081-65.0272Q92.0593-58.8234 92.0593-51.9127Q92.0593-45.0478 90.0776-38.8454Q88.0959-32.6431 84.4398-27.7069Q84.1026-27.2514 84.1373-26.836Q84.1721-26.4206 84.5718-26.136Z"/>
  </g>
 </g>
</svg>
